<svg xmlns="http://www.w3.org/2000/svg" width="139.667" height="135.26" viewBox="0 0 139.667 135.26">
  <g id="Xf5PWK.tif" transform="translate(-101.984 -456.511)">
    <g id="Grupo_11443" data-name="Grupo 11443" transform="translate(126.316 456.511)">
      <path id="Trazado_16693" data-name="Trazado 16693" d="M126.316,542.564V462.592a8.7,8.7,0,0,1,3.232-4.656,31.151,31.151,0,0,1,2.849-1.425H235.571a1.467,1.467,0,0,0,.344.224,7.593,7.593,0,0,1,5.733,7.777q0,38.115,0,76.236a8.687,8.687,0,0,1-.117,1.791,7.736,7.736,0,0,1-7.929,6.292c-6.795.019-13.589.006-20.384.006h-4.23c0,1.267.044,2.388-.013,3.5a1.48,1.48,0,0,0,.891,1.589c3.443,1.9,6.842,3.882,10.269,5.815a4.258,4.258,0,0,1,2.35,4.043c-.022,1.352.016,2.7-.009,4.053a3.859,3.859,0,0,1-4.065,4q-34.457,0-68.916,0a3.846,3.846,0,0,1-4-3.952c-.028-1.276.035-2.552-.016-3.828A4.422,4.422,0,0,1,148,559.672c3.415-1.879,6.782-3.844,10.153-5.8.338-.2.771-.594.793-.922.092-1.333.038-2.676.038-4.11h-1.453c-7.733,0-15.466.019-23.2-.009a7.636,7.636,0,0,1-7.407-4.719C126.686,543.607,126.515,543.079,126.316,542.564Zm3.841-13.138H237.81v-64.15c0-3.528-1.384-4.925-4.887-4.925q-49.1,0-98.2.009c-3.058,0-4.565,1.5-4.565,4.542q0,22.464-.006,44.931Zm107.631,4.094H130.17c0,2.631-.079,5.184.025,7.73a3.66,3.66,0,0,0,3.835,3.6c1.014.028,2.028.022,3.039.022q35.916,0,71.829,0,12.386,0,24.769-.019c2.42-.006,4.015-1.384,4.1-3.689C237.864,538.66,237.788,536.146,237.788,533.521ZM212.7,560.247l.07-.18c-1.766-1.014-3.516-2.066-5.313-3.026a4.211,4.211,0,0,0-1.892-.505c-13.166-.031-26.335.044-39.5-.073-3.137-.028-5.989.344-8.542,2.265a26.263,26.263,0,0,1-2.6,1.519Z" transform="translate(-126.316 -456.511)" fill="#fff"/>
      <path id="Trazado_16694" data-name="Trazado 16694" d="M145.476,465.045c-.087.227-.212.611-.379.974a.88.88,0,0,0-.009.7,2.075,2.075,0,0,0,1.556,1.583,1.083,1.083,0,0,1,.733,1.079,13.253,13.253,0,0,1,0,1.385,1.15,1.15,0,0,1-.821,1.151,1.87,1.87,0,0,0-1.39,1.362,1.2,1.2,0,0,0,0,1.047,2.516,2.516,0,0,1,.293.865c.1.858-1.37,2.391-2.23,2.3a8.594,8.594,0,0,1-1.141-.382,1.307,1.307,0,0,0-.622.009,2,2,0,0,0-1.623,1.562.95.95,0,0,1-.925.681c-.543.027-1.088.038-1.63.014a1.081,1.081,0,0,1-1.054-.821,1.823,1.823,0,0,0-1.333-1.364,1.366,1.366,0,0,0-1.1,0c-1.115.505-1.345.448-2.217-.4l-.029-.028c-.948-.946-1.192-1.2-.519-2.595a.9.9,0,0,0,0-.74,2.059,2.059,0,0,0-1.532-1.55,1.125,1.125,0,0,1-.746-1.158c-.018-.419-.019-.84,0-1.259a1.219,1.219,0,0,1,.9-1.23,1.757,1.757,0,0,0,1.29-1.246,1.355,1.355,0,0,0-.024-1.243,1.512,1.512,0,0,1,.389-2.091c.115-.1.217-.219.329-.326.794-.761,1.093-.839,2.084-.37a1.513,1.513,0,0,0,1.283-.012,1.632,1.632,0,0,0,1.173-1.192,1.243,1.243,0,0,1,1.349-.963c.405.009.81,0,1.216.008a1.117,1.117,0,0,1,1.153.808,1.9,1.9,0,0,0,1.4,1.41,1.155,1.155,0,0,0,1.011-.02,4.946,4.946,0,0,1,.74-.286.794.794,0,0,1,.246-.044A3.064,3.064,0,0,1,145.476,465.045Zm.455,5c.133-.384-.1-.56-.449-.667-.213-.065-.413-.173-.624-.241a1,1,0,0,1-.676-.727,10.323,10.323,0,0,0-.612-1.463,1.014,1.014,0,0,1-.044-.956,4.675,4.675,0,0,1,.269-.613c.229-.353.112-.59-.154-.867a.6.6,0,0,0-.858-.152,6.334,6.334,0,0,1-.611.272,1.02,1.02,0,0,1-.958-.041,14.127,14.127,0,0,0-1.505-.617.991.991,0,0,1-.676-.627c-.066-.2-.176-.384-.224-.585a.656.656,0,0,0-.8-.556c-.337.021-.544.084-.631.437a2.183,2.183,0,0,1-.3.731,1.8,1.8,0,0,1-.61.57,12.5,12.5,0,0,1-1.617.67,1.755,1.755,0,0,1-.8.034,1.782,1.782,0,0,1-.654-.27.631.631,0,0,0-.925.165c-.239.258-.359.468-.148.792.1.15.127.342.217.5a1.11,1.11,0,0,1-.049,1.258,2,2,0,0,0-.345.757,1.8,1.8,0,0,1-1.517,1.556c-.013,0-.025.016-.038.019-.432.06-.39.389-.4.695s.037.571.413.655a1.718,1.718,0,0,1,1.522,1.537.668.668,0,0,0,.091.233c.789,1.384.561,1.134.045,2.475a.493.493,0,0,0-.046.311.855.855,0,0,0,1.158.482c.217-.1.437-.184.651-.287a.935.935,0,0,1,.876.052,14.045,14.045,0,0,0,1.5.625,1.016,1.016,0,0,1,.709.645,6.231,6.231,0,0,1,.239.624c.091.41.342.491.724.5s.624-.113.724-.5c.051-.2.158-.388.224-.587a.975.975,0,0,1,.729-.675,3.4,3.4,0,0,0,1.048-.4,1.545,1.545,0,0,1,1.863-.038c.035.021.078.031.112.054.355.245.609.128.893-.164a.588.588,0,0,0,.139-.835,5.934,5.934,0,0,1-.273-.611,1.012,1.012,0,0,1,.051-1,4.357,4.357,0,0,0,.506-1.144,1.346,1.346,0,0,1,1.065-1.141c.107-.027.2-.1.312-.119A.553.553,0,0,0,145.931,470.04Z" transform="translate(-153.076 -376.139)" fill="#fff"/>
      <path id="Trazado_16714" data-name="Trazado 16714" d="M155.032,467.478c-.137.357-.333.96-.6,1.53a1.383,1.383,0,0,0-.015,1.1,3.26,3.26,0,0,0,2.445,2.487,1.7,1.7,0,0,1,1.151,1.7,20.825,20.825,0,0,1,0,2.176,1.807,1.807,0,0,1-1.29,1.808,2.938,2.938,0,0,0-2.184,2.139,1.88,1.88,0,0,0,0,1.645,3.953,3.953,0,0,1,.461,1.358c.161,1.347-2.152,3.757-3.5,3.609a13.494,13.494,0,0,1-1.793-.6,2.054,2.054,0,0,0-.977.015,3.144,3.144,0,0,0-2.55,2.454,1.493,1.493,0,0,1-1.453,1.07c-.853.043-1.71.059-2.561.022a1.7,1.7,0,0,1-1.656-1.29,2.865,2.865,0,0,0-2.095-2.143,2.146,2.146,0,0,0-1.723.006c-1.753.794-2.113.7-3.483-.633l-.046-.044c-1.49-1.486-1.873-1.886-.816-4.077a1.414,1.414,0,0,0,0-1.162,3.235,3.235,0,0,0-2.408-2.435,1.768,1.768,0,0,1-1.171-1.819c-.028-.659-.03-1.319,0-1.978a1.915,1.915,0,0,1,1.414-1.932,2.761,2.761,0,0,0,2.026-1.958,2.128,2.128,0,0,0-.037-1.952,2.375,2.375,0,0,1,.611-3.285c.181-.161.341-.344.516-.513,1.247-1.2,1.717-1.318,3.274-.581a2.377,2.377,0,0,0,2.015-.018,2.564,2.564,0,0,0,1.843-1.873,1.953,1.953,0,0,1,2.119-1.514c.637.015,1.273,0,1.91.013a1.755,1.755,0,0,1,1.812,1.269,2.985,2.985,0,0,0,2.193,2.215,1.815,1.815,0,0,0,1.588-.031,7.768,7.768,0,0,1,1.162-.45,1.247,1.247,0,0,1,.387-.068C152.819,463.721,155.065,466,155.032,467.478Zm.714,7.848c.209-.6-.15-.879-.705-1.047-.335-.1-.65-.272-.981-.379A1.573,1.573,0,0,1,153,472.758a16.22,16.22,0,0,0-.962-2.3,1.594,1.594,0,0,1-.068-1.5,7.341,7.341,0,0,1,.422-.962c.359-.555.176-.927-.242-1.362a.946.946,0,0,0-1.347-.239,9.966,9.966,0,0,1-.96.427,1.6,1.6,0,0,1-1.5-.065,22.2,22.2,0,0,0-2.365-.97,1.557,1.557,0,0,1-1.062-.984c-.1-.311-.276-.6-.352-.92a1.031,1.031,0,0,0-1.26-.873c-.529.033-.855.131-.992.687a3.431,3.431,0,0,1-.477,1.149,2.822,2.822,0,0,1-.959.9,19.635,19.635,0,0,1-2.541,1.053,2.758,2.758,0,0,1-1.249.054,2.8,2.8,0,0,1-1.027-.424.991.991,0,0,0-1.453.259c-.376.405-.564.735-.233,1.244.152.235.2.537.34.783a1.744,1.744,0,0,1-.078,1.976,3.149,3.149,0,0,0-.542,1.19,2.829,2.829,0,0,1-2.384,2.445c-.02.006-.039.026-.059.03-.679.094-.613.611-.629,1.092-.02.5.057.9.65,1.029a2.7,2.7,0,0,1,2.391,2.415,1.05,1.05,0,0,0,.143.366c1.24,2.174.881,1.782.07,3.888a.775.775,0,0,0-.072.489,1.343,1.343,0,0,0,1.819.757c.341-.15.687-.289,1.023-.451a1.469,1.469,0,0,1,1.377.081,22.07,22.07,0,0,0,2.358.983,1.6,1.6,0,0,1,1.114,1.014,9.782,9.782,0,0,1,.376.981c.142.644.537.772,1.138.779s.981-.178,1.138-.787c.08-.316.248-.609.352-.922a1.531,1.531,0,0,1,1.146-1.06,5.338,5.338,0,0,0,1.647-.635,2.427,2.427,0,0,1,2.928-.059c.055.033.122.048.176.085.557.385.957.2,1.4-.257a.924.924,0,0,0,.218-1.312,9.324,9.324,0,0,1-.429-.961,1.589,1.589,0,0,1,.08-1.565,6.845,6.845,0,0,0,.8-1.8,2.114,2.114,0,0,1,1.673-1.793c.168-.043.322-.152.49-.187A.868.868,0,0,0,155.746,475.326Z" transform="translate(-143.394 -354.748)" fill="#d9a100"/>
      <path id="Trazado_16695" data-name="Trazado 16695" d="M160.368,464.421c3.074,0,6.15-.006,9.224,0,1.475,0,2.262.667,2.284,1.883.022,1.273-.774,1.965-2.306,1.965q-9.225,0-18.448,0c-1.456,0-2.262-.67-2.287-1.876-.028-1.261.777-1.955,2.309-1.962,3.074-.006,6.15,0,9.224,0Z" transform="translate(-77.702 -439.44)" fill="#fff"/>
      <path id="Trazado_16696" data-name="Trazado 16696" d="M155.627,474.142c1.425,0,2.852-.019,4.277.006,1.478.025,2.394.8,2.4,1.971s-.91,1.981-2.375,1.99c-2.963.016-5.929.028-8.892-.006a1.982,1.982,0,1,1-.028-3.942c1.538-.028,3.077-.006,4.615-.006Z" transform="translate(-77.702 -418.464)" fill="#fff"/>
      <path id="Trazado_16697" data-name="Trazado 16697" d="M155.523,471.713c1.5,0,3-.016,4.5,0a1.994,1.994,0,1,1,.022,3.945q-4.5.038-9.009-.019c-1.421-.016-2.23-.809-2.2-2.006s.869-1.908,2.293-1.921C152.594,471.7,154.057,471.713,155.523,471.713Z" transform="translate(-77.701 -423.705)" fill="#fff"/>
      <path id="Trazado_16698" data-name="Trazado 16698" d="M155.507,470.713c-1.538,0-3.077.022-4.615-.006a1.861,1.861,0,0,1-2.056-1.883,1.881,1.881,0,0,1,2.1-1.959q4.61-.028,9.227-.009a1.934,1.934,0,1,1,.066,3.851C158.656,470.732,157.08,470.713,155.507,470.713Z" transform="translate(-77.701 -434.194)" fill="#fff"/>
      <path id="Trazado_16699" data-name="Trazado 16699" d="M155.545,465.873c-1.538,0-3.074.016-4.612,0a1.917,1.917,0,0,1-2.1-1.981A1.856,1.856,0,0,1,150.892,462q4.667-.038,9.338,0a1.94,1.94,0,0,1,2.082,1.9,1.989,1.989,0,0,1-2.151,1.959c-1.538.019-3.077,0-4.615,0Z" transform="translate(-77.701 -444.696)" fill="#fff"/>
      <path id="Trazado_16700" data-name="Trazado 16700" d="M159.273,471.72c.9,0,1.8-.038,2.7.01a1.918,1.918,0,0,1,1.958,1.9,1.832,1.832,0,0,1-1.854,1.984c-1.981.076-3.971.073-5.951-.013a1.9,1.9,0,0,1-1.826-1.924,1.952,1.952,0,0,1,1.94-1.943C157.248,471.679,158.262,471.72,159.273,471.72Z" transform="translate(-65.907 -423.709)" fill="#fff"/>
      <path id="Trazado_16701" data-name="Trazado 16701" d="M156.8,469.286c.9,0,1.8-.022,2.7.006a1.907,1.907,0,0,1,2.009,1.949,1.807,1.807,0,0,1-1.908,1.908c-1.908.054-3.822.051-5.73,0a1.94,1.94,0,0,1-2-1.977,2.036,2.036,0,0,1,2.123-1.889H156.8Z" transform="translate(-71.169 -428.95)" fill="#fff"/>
      <path id="Trazado_16702" data-name="Trazado 16702" d="M158.136,465.86c-.638,0-1.276.028-1.911-.006A1.968,1.968,0,0,1,154.3,463.9a1.9,1.9,0,0,1,1.854-1.88c1.349-.051,2.7-.051,4.047,0a1.9,1.9,0,0,1,1.873,1.867,2,2,0,0,1-1.914,1.974c-.67.041-1.349.006-2.022.006Z" transform="translate(-65.907 -444.696)" fill="#fff"/>
      <path id="Trazado_16703" data-name="Trazado 16703" d="M148.7,478.151a10.9,10.9,0,0,1-1.545-.212,1.759,1.759,0,0,1-1.365-1.826,1.678,1.678,0,0,1,1.361-1.81,9.758,9.758,0,0,1,2.559-.133,1.968,1.968,0,0,1,1.886,1.883,2.035,2.035,0,0,1-1.883,2.015,7.658,7.658,0,0,1-1.008.006Z" transform="translate(-84.277 -418.446)" fill="#fff"/>
      <path id="Trazado_16704" data-name="Trazado 16704" d="M148.594,475.705a10.912,10.912,0,0,1-1.118-.088,1.908,1.908,0,0,1-1.687-2.037,1.955,1.955,0,0,1,1.8-1.835,14.274,14.274,0,0,1,1.908-.019,1.962,1.962,0,1,1,.215,3.917,8.305,8.305,0,0,1-1.121.006Z" transform="translate(-84.284 -423.714)" fill="#fff"/>
      <path id="Trazado_16705" data-name="Trazado 16705" d="M157.164,478.149c-1.857-.063-2.843-.736-2.865-2.015-.025-1.32.976-2.075,2.906-1.978a4.243,4.243,0,0,1,2.35.695,1.805,1.805,0,0,1-.745,3.052A9.113,9.113,0,0,1,157.164,478.149Z" transform="translate(-65.905 -418.437)" fill="#fff"/>
      <path id="Trazado_16706" data-name="Trazado 16706" d="M148.655,470.707a11.043,11.043,0,0,1-1.121-.006,1.859,1.859,0,0,1-1.75-1.842,1.882,1.882,0,0,1,1.63-1.962,13.778,13.778,0,0,1,2.578.013,1.91,1.91,0,0,1-.1,3.787c-.407.041-.824.006-1.235.006Z" transform="translate(-84.29 -434.206)" fill="#fff"/>
      <path id="Trazado_16707" data-name="Trazado 16707" d="M148.616,468.265a11.074,11.074,0,0,1-1.121-.006,1.9,1.9,0,0,1-1.709-1.892,1.842,1.842,0,0,1,1.681-1.9,17.234,17.234,0,0,1,2.353-.006,1.959,1.959,0,0,1,1.794,1.946,1.991,1.991,0,0,1-1.766,1.87c-.408.038-.821.006-1.232.006Z" transform="translate(-84.283 -439.44)" fill="#fff"/>
      <path id="Trazado_16708" data-name="Trazado 16708" d="M148.718,469.286c1.88,0,2.843.635,2.881,1.9.038,1.311-.951,1.99-2.906,1.987-.338,0-.676.01-1.008-.019a1.88,1.88,0,0,1-1.9-1.933,1.95,1.95,0,0,1,1.921-1.933C148.043,469.267,148.38,469.286,148.718,469.286Z" transform="translate(-84.281 -428.948)" fill="#fff"/>
      <path id="Trazado_16709" data-name="Trazado 16709" d="M148.656,465.86c-2.006,0-2.9-.622-2.868-2,.028-1.32.875-1.876,2.859-1.876.3,0,.6-.006.894.01a1.977,1.977,0,0,1,2.06,1.917,2.017,2.017,0,0,1-2.047,1.943C149.253,465.869,148.953,465.86,148.656,465.86Z" transform="translate(-84.282 -444.692)" fill="#fff"/>
      <path id="Trazado_16710" data-name="Trazado 16710" d="M151.651,473.171c-1.927.025-2.818-.578-2.818-1.9,0-1.355.878-1.99,2.767-2,.335,0,.673-.013,1.008.006a1.919,1.919,0,0,1,1.984,1.977,1.892,1.892,0,0,1-1.93,1.9C152.327,473.193,151.989,473.171,151.651,473.171Z" transform="translate(-77.705 -428.956)" fill="#fff"/>
      <path id="Trazado_16711" data-name="Trazado 16711" d="M160.209,468.261c-1.94.006-2.837-.584-2.865-1.876-.032-1.324.907-1.959,2.9-1.959.373,0,.749-.016,1.118.013a1.912,1.912,0,0,1-.028,3.819C160.957,468.283,160.581,468.261,160.209,468.261Z" transform="translate(-59.334 -439.433)" fill="#fff"/>
      <path id="Trazado_16712" data-name="Trazado 16712" d="M148.438,486.022c-1.121,0-2.246.019-3.367-.006-1.447-.032-2.379-.856-2.341-2.025a2.1,2.1,0,0,1,2.325-1.933c2.357-.016,4.716-.016,7.073.013a2.045,2.045,0,0,1,2.23,1.9,2.075,2.075,0,0,1-2.214,2.044c-.073.006-.148,0-.224,0Z" transform="translate(-90.884 -401.383)" fill="#fff"/>
      <path id="Trazado_16713" data-name="Trazado 16713" d="M137.43,464.424a5.024,5.024,0,1,1-.06,10.047,5.024,5.024,0,0,1,.06-10.047Zm-3.569,4.992a3.566,3.566,0,1,0,7.131.045,3.566,3.566,0,1,0-7.131-.045Z" transform="translate(-152.428 -375.491)" fill="#fff"/>
      <path id="Trazado_16715" data-name="Trazado 16715" d="M140.31,464.424a7.893,7.893,0,1,1-.094,15.785,7.893,7.893,0,0,1,.094-15.785Zm-5.607,7.843a5.6,5.6,0,1,0,11.2.07,5.6,5.6,0,1,0-11.2-.07Z" transform="translate(-140.295 -351.652)" fill="#d9a100"/>
    </g>
  </g>
</svg>
