<svg id="Capa_2" data-name="Capa 2" xmlns="http://www.w3.org/2000/svg" width="220" height="108.047" viewBox="0 0 220 108.047">
  <g id="Capa_1" data-name="Capa 1" transform="translate(0 0)">
    <text id="L_CAL" data-name="L   CAL" transform="translate(37.506 84.676)" fill="#303031" font-size="43" font-family="Arial-Black, Arial Black" font-weight="800"><tspan x="0" y="0" xml:space="preserve">L   CAL</tspan></text>
    <text id="CONSUMIMOS" transform="translate(0 42.021)" fill="#303031" font-size="28" font-family="Arial-Black, Arial Black" font-weight="800"><tspan x="0" y="0">CONSUMIMOS</tspan></text>
    <text id="CULIACÁN" transform="translate(73.036 12)" fill="#1d1d1b" font-size="13" font-family="ArialNarrow, Arial Narrow" letter-spacing="0.2em"><tspan x="0" y="0">CULIACÁN</tspan></text>
    <path id="Trazado_1" data-name="Trazado 1" d="M129.643,116.323l-.447.063c-.245-.189-.214-.434-.176-.7a42.219,42.219,0,0,1,1.944-6.769,27.678,27.678,0,0,0,1.2-4.221l-1.887.12-3.271.22a.629.629,0,0,0-.629.377,69.2,69.2,0,0,1-4.724,7.5c-.126.176-.283.333-.415.5a.428.428,0,0,1-.629.094c-.233-.138-.176-.352-.088-.547a24.078,24.078,0,0,1,1.3-2.516c1.063-1.849,2.214-3.642,3.372-5.435a1.6,1.6,0,0,1,1.315-.774c1.56-.164,3.145-.384,4.693-.5a31.807,31.807,0,0,1,4.957-.069c.3,0,.421-.031.346-.346a.471.471,0,0,1,0-.164.068.068,0,0,1,.075.075c.057.421.34.51.717.535a24.284,24.284,0,0,1,3,.434c.245.05.264,0,.252-.22s0-.384,0-.629a4.883,4.883,0,0,1,.44.893c0,.132.107.113.189.132l3.73.856a.214.214,0,0,0,.233-.075c.1-.113.214-.226.321-.34,0,0,.05,0,.05.038,0,.5,0,.51.5.629.661.182,1.315.4,1.956.629.132.05.258.132.415.069s.132.088.164.151q1.315,2.567,2.611,5.14c.327.629.629,1.258.981,1.887a1.139,1.139,0,0,1,.075.862l-3.636-6.693c-.057.333-.44.528-.245.9.132,0,.151-.164.277-.226a5.033,5.033,0,0,1-.075,1.158,13.172,13.172,0,0,1-.371,2.026.491.491,0,0,0,.038.365c.164.321.315.629.491,1-.484-.05-.415-.554-.7-.761a6.19,6.19,0,0,1-.711,1.516c-.044.05-.05.862-.12.874a6.371,6.371,0,0,1-1.3,0c-.182-.145-.057-1.107,0-1.258a19.169,19.169,0,0,1,.887-2.321,1.712,1.712,0,0,1,.069-.157.975.975,0,0,0-.528-1.378c-.7-.327-.629-.434-.717.428a13.682,13.682,0,0,1-.767,3.831,8.613,8.613,0,0,1-.132.912,2.825,2.825,0,0,1-1.107.22c-.05,0,.069-.189.038-.226a11.623,11.623,0,0,1-.333-2.026c.22-1.2.522-2.384.843-3.561.132-.478.076-.554-.415-.629a.629.629,0,0,0-.264,0A2.3,2.3,0,0,1,142,108.05c-.308-.082-.3-.088-.277.239.082.944.17,1.887.157,2.825a15.23,15.23,0,0,0-.05,2.642,14.116,14.116,0,0,1,0,1.548,3.712,3.712,0,0,1-1.428.145s-.3-.994-.321-1.019a5.856,5.856,0,0,1-.094-1.554c.076-.629,0-1.315.094-1.969.082-.849.107-1.711.214-2.554s.1-.767-.629-.981c-.591-.17-1.17-.359-1.755-.535-.252-.075-.277-.057-.233.208a37.359,37.359,0,0,1,.1,4.114,24.4,24.4,0,0,0,.126,3.145c-.05.384.208,1.139,0,1.472-.308.264-.994.17-1.415.126-.138-.126-.151-.585-.164-.78a58.078,58.078,0,0,1,.164-7.4c0-.415,0-.824.038-1.258a.25.25,0,0,0-.208-.289l-2.887-.994a2.328,2.328,0,0,1-.547-.245c-.333,1.353-.629,2.686-.994,4.014-.541,2.139-1.044,4.3-1.774,6.391A2.819,2.819,0,0,1,129.643,116.323Z" transform="translate(-44.673 -37.971)" fill="#1d181e"/>
    <path id="Trazado_2" data-name="Trazado 2" d="M150.82,117.138l-2.579.812h-.05a5.032,5.032,0,0,0,.491-2.164,27.394,27.394,0,0,0-.459-6.373v-.063c.925.277,1.85.56,2.781.83.145.044.107.145.1.239-.044.6-.094,1.2-.145,1.793a35.167,35.167,0,0,0-.138,4.926Z" transform="translate(-54.967 -40.271)" fill="#fff"/>
    <path id="Trazado_3" data-name="Trazado 3" d="M156.16,117.2l-1.73.333a10.656,10.656,0,0,0,.359-3.774c0-.767-.094-1.535-.17-2.3,0-.214,0-.258.22-.176a3.371,3.371,0,0,0,.6.164,1.2,1.2,0,0,0,.818.05,1.415,1.415,0,0,1,.994.176c.151.069.063.182.038.277-.327,1.3-.692,2.579-.925,3.888C156.279,116.307,156.229,116.754,156.16,117.2Z" transform="translate(-57.281 -40.975)" fill="#fff"/>
    <path id="Trazado_4" data-name="Trazado 4" d="M160.738,117.537a12.189,12.189,0,0,1-1.258.075,14.009,14.009,0,0,0,.975-4.762c.365.17.717.315,1.051.491.208.113.22.377.352.56a.541.541,0,0,1,0,.591,15.963,15.963,0,0,0-1.12,3.045Z" transform="translate(-59.154 -41.569)" fill="#fff"/>
    <path id="Trazado_5" data-name="Trazado 5" d="M162.695,112.211a6.386,6.386,0,0,1-.283-.9.223.223,0,0,0-.233-.226,5.141,5.141,0,0,1-1.095-.3.164.164,0,0,1-.145-.189,7.34,7.34,0,0,0-.12-1.617c0-.132,0-.2.176-.164.774.145,1.548.264,2.328.39.252.044.409.22.346.434a19.076,19.076,0,0,1-.975,2.573Z" transform="translate(-59.651 -40.068)" fill="#fff"/>
    <path id="Trazado_6" data-name="Trazado 6" d="M157.69,108.17c-.132.528-.252.994-.359,1.459,0,.132-.082.138-.182.1l-2.711-.944c-.082,0-.132-.069-.138-.164a2.95,2.95,0,0,0-.308-1.126c-.031-.069-.069-.17-.038-.22s.138,0,.214,0c1.1.258,2.2.5,3.3.767C157.545,108.063,157.753,108.019,157.69,108.17Z" transform="translate(-57.1 -39.493)" fill="#fff"/>
    <path id="Trazado_7" data-name="Trazado 7" d="M150.928,107.184c0,.692,0,.7-.661.491-.83-.271-1.654-.56-2.485-.812a.421.421,0,0,1-.346-.447v-.176c-.05-.491-.05-.491.409-.384l2.781.629c.226.05.377.12.315.39A1.548,1.548,0,0,0,150.928,107.184Z" transform="translate(-54.679 -38.954)" fill="#fff"/>
    <path id="Trazado_8" data-name="Trazado 8" d="M145.54,106.455c-.667-.22-1.315-.421-2-.7l1.761-.226c.176,0,.258,0,.245.208S145.54,106.2,145.54,106.455Z" transform="translate(-53.242 -38.854)" fill="#fffeff"/>
    <rect id="Rectángulo_1" data-name="Rectángulo 1" width="27.73" height="0.956" transform="translate(75.945 78.611) rotate(-5.32)" fill="#1d181e"/>
    <path id="Trazado_9" data-name="Trazado 9" d="M147.7,117.621l-27.56,3.158-.088-.956,27.61-2.573Z" transform="translate(-44.529 -43.201)" fill="#1d181e"/>
    <path id="Trazado_10" data-name="Trazado 10" d="M106.509,99.656A21.519,21.519,0,0,1,149,95.07a20.942,20.942,0,0,1-2.862,16.394c-5.165,8.033-10.4,16.01-15.626,24.012a2.56,2.56,0,0,1-4.473.044q-8.077-12.015-16.13-24.056a21.068,21.068,0,0,1-3.4-11.808Zm1.755,2c0,2.334,1.158,5.989,3.384,9.31l15.727,23.44c.629.918,1.189.906,1.805-.038q2.768-4.246,5.511-8.493c3.3-5.033,6.612-10.109,9.889-15.186a19.432,19.432,0,0,0,2.705-15.324A19.81,19.81,0,0,0,123.016,80.7C114.227,83.054,108.232,90.886,108.264,101.656Z" transform="translate(-39.505 -28.765)" fill="#353535"/>
    <path id="Trazado_11" data-name="Trazado 11" d="M109.3,102.68c0-10.77,5.964-18.6,14.752-20.955A19.81,19.81,0,0,1,148.316,96.39a19.432,19.432,0,0,1-2.705,15.324c-3.278,5.077-6.593,10.122-9.889,15.186l-5.511,8.493c-.629.944-1.189.956-1.805.038l-15.727-23.44A18.837,18.837,0,0,1,109.3,102.68Zm9.367-10.9c-.686-.3-.963-.233-1.409.377a14.28,14.28,0,0,0-2.63,11.323,14.683,14.683,0,1,0,16-17.193A14.192,14.192,0,0,0,120.2,89.212c-.629.472-.679.717-.365,1.409Z" transform="translate(-40.542 -29.789)" fill="#ff5c5b"/>
    <path id="Trazado_12" data-name="Trazado 12" d="M121.652,94.794a1,1,0,0,1,0,1.384,12.94,12.94,0,1,0,12.921-4.989,12.494,12.494,0,0,0-10.33,2.365,1.032,1.032,0,0,1-1.434.05c-.315-.692-.264-.937.365-1.409a14.192,14.192,0,0,1,10.436-2.887,14.67,14.67,0,1,1-16,17.193,14.28,14.28,0,0,1,2.63-11.323C120.689,94.561,120.966,94.5,121.652,94.794Z" transform="translate(-43.526 -32.798)" fill="#333"/>
  </g>
</svg>
