<?xml version="1.0" encoding="UTF-8" standalone="no"?>
<!-- Created with Inkscape (http://www.inkscape.org/) -->

<svg
   version="1.1"
   id="svg1"
   width="800"
   height="300"
   viewBox="0 0 800 300"
   xmlns="http://www.w3.org/2000/svg"
   xmlns:svg="http://www.w3.org/2000/svg">
  <defs
     id="defs1" />
  <g
     id="g1">
    <path
       style="fill:#000000"
       d="m 159.34459,199.24746 c 0.13,-6.86873 0.5717,-9.86883 1.5437,-10.48469 0.749,-0.47449 2.7949,-0.86961 4.5466,-0.87803 1.7517,-0.008 4.3507,0.42794 5.7756,0.96968 1.4249,0.54175 2.8778,1.73311 3.2287,2.64747 0.3509,0.91436 0.1599,2.92886 -0.4243,4.47666 -0.8256,2.18744 -0.7507,3.07271 0.3364,3.97498 0.7693,0.63844 1.3987,2.03527 1.3987,3.10409 0,1.06881 -0.4658,2.81371 -1.0352,3.87755 -0.8775,1.63962 -2.1409,1.93426 -8.2938,1.93426 h -7.2586 z m 12.8236,7.01498 c 0.87,-0.33384 1.5818,-1.36884 1.5818,-2.3 0,-0.93115 -0.54,-2.23301 -1.2,-2.89301 -0.66,-0.66 -3.36,-1.2 -6,-1.2 h -4.8 v 3.5 c 0,3.47188 0.035,3.5 4.4182,3.5 2.43,0 5.13,-0.27314 6,-0.60699 z m -1.0006,-9.70911 c 0.9899,-0.72385 1.6342,-2.18635 1.4318,-3.25 -0.2988,-1.5695 -1.3556,-1.99085 -5.6088,-2.23616 l -5.2406,-0.30226 v 3.55226 c 0,3.44793 0.1119,3.55226 3.8089,3.55226 2.0949,0 4.6188,-0.59224 5.6087,-1.3161 z m 16.163,2.5661 c 2.4113,-5.3625 4.9788,-9.87848 5.7055,-10.03552 0.8119,-0.17543 2.9419,3.29466 5.5244,9 2.3116,5.10704 4.2,9.62302 4.1963,10.03552 0,0.4125 -0.3846,0.75 -0.8463,0.75 -0.4617,0 -1.352,-1.125 -1.9785,-2.5 -1.0156,-2.22898 -1.74,-2.5 -6.682,-2.5 -4.942,0 -5.6664,0.27102 -6.6819,2.5 -0.6265,1.375 -1.6977,2.5 -2.3804,2.5 -0.7734,0 0.4112,-3.67478 3.1429,-9.75 z m 10.3742,2 c -0.025,-0.4125 -1.0906,-2.7489 -2.3683,-5.192 l -2.323,-4.442 -2.1318,4.81912 c -1.1724,2.65051 -2.1317,4.98691 -2.1317,5.192 0,0.20508 2.025,0.37288 4.5,0.37288 2.475,0 4.4797,-0.3375 4.4548,-0.75 z m 14.1357,-1.64398 c -0.039,-7.14438 0.3055,-9.68977 1.4374,-10.62915 0.9319,-0.7734 3.1827,-1.04417 6.0208,-0.72428 2.4928,0.28099 5.4142,1.30885 6.4919,2.28413 1.1932,1.07984 1.9594,3.06607 1.9594,5.07931 0,2.08148 -0.7859,4.0382 -2.1216,5.28266 l -2.1217,1.9766 2.1357,2.71502 c 1.1746,1.49326 1.8671,2.98351 1.539,3.31166 -0.3282,0.32816 -1.9032,-0.86554 -3.4999,-2.65266 -2.225,-2.49017 -3.7185,-3.24931 -6.3924,-3.24931 -3.3434,0 -3.464,0.12524 -2.8891,3 0.4608,2.30393 0.2394,3 -0.9543,3 -1.2918,0 -1.5629,-1.58643 -1.6052,-9.39398 z m 12.1595,0.002 c 0.9625,-0.73064 1.75,-2.42633 1.75,-3.76819 0,-1.34187 -0.54,-2.97976 -1.2,-3.63976 -0.66,-0.66 -3.135,-1.2 -5.5,-1.2 h -4.3 v 5 5 l 3.75,-0.0318 c 2.0625,-0.0175 4.5375,-0.6296 5.5,-1.36025 z m 14.75,-0.5889 c 0,-9.81933 0.041,-9.99113 2.5066,-10.61006 1.3786,-0.34601 4.1037,-0.32948 6.0558,0.0367 1.952,0.36621 4.4241,1.54073 5.4934,2.61006 1.0693,1.06932 1.9442,3.08967 1.9442,4.48967 0,1.4 -1.0362,3.58161 -2.3026,4.84803 l -2.3025,2.30256 2.4307,3.15198 c 1.671,2.16686 2,3.15108 1.0526,3.1491 -0.758,-0.002 -2.2782,-1.35032 -3.3782,-2.99716 -1.6274,-2.43649 -2.6985,-2.99479 -5.75,-2.99712 -3.5006,-0.003 -3.75,0.19661 -3.75,2.99712 0,1.65 -0.45,3 -1,3 -0.5999,0 -1,-3.99365 -1,-9.98095 z m 12.5274,-0.0493 c 1.4536,-1.60626 1.6386,-2.5983 0.8856,-4.75 -0.85,-2.42894 -1.511,-2.75204 -6.1824,-3.02198 l -5.2306,-0.30236 v 5.05226 5.05226 h 4.345 c 3.0966,0 4.8729,-0.58333 6.1824,-2.03028 z m 11.6393,9.24292 c 0.1833,-0.43304 2.1154,-4.93304 4.2935,-10 2.1905,-5.0956 4.5621,-9.21264 5.3069,-9.21264 0.7407,0 2.8998,3.4875 4.798,7.75 1.8982,4.2625 3.8976,8.53139 4.4431,9.48643 0.5455,0.95504 0.9918,1.96754 0.9918,2.25 0,0.28246 -0.4596,0.51357 -1.0214,0.51357 -0.5618,0 -1.5341,-1.125 -2.1605,-2.5 -1.0266,-2.25296 -1.7186,-2.5 -7.0034,-2.5 -5.335,0 -5.95,0.2256 -6.8147,2.5 -0.5228,1.375 -1.4491,2.5 -2.0586,2.5 -0.6094,0 -0.9581,-0.35431 -0.7747,-0.78736 z m 13.8333,-7.25258 c 0,-0.57191 -0.9314,-2.86552 -2.0698,-5.0969 -1.1383,-2.23139 -2.235,-3.89174 -2.4371,-3.68967 -0.2021,0.20207 -1.2797,2.49567 -2.3947,5.0969 l -2.0273,4.72951 h 4.4644 c 2.4555,0 4.4645,-0.46793 4.4645,-1.03984 z m 29.215,-2.21016 0.285,-10.25 4,-0.23199 c 2.2,-0.12759 5.3963,0.22297 7.103,0.77902 1.7066,0.55606 4.1714,2.14832 5.4772,3.53836 1.6616,1.76866 2.3744,3.69862 2.3744,6.42904 0,2.94722 -0.713,4.64584 -2.9144,6.94363 -2.6916,2.80939 -3.4379,3.04194 -9.7623,3.04194 h -6.8479 z m 12.1009,7.79793 c 1.9739,-0.43398 3.2418,-1.63833 4.2401,-4.02762 0.7833,-1.87469 1.1365,-4.22117 0.7851,-5.21441 -0.3515,-0.99325 -1.5505,-2.8184 -2.6644,-4.0559 -1.6221,-1.80204 -3.0934,-2.25 -7.3899,-2.25 h -5.3647 l 0.1697,7.94619 c 0.1658,7.76989 0.2277,7.9536 2.7889,8.28025 1.4406,0.18374 3.0693,0.24554 3.6193,0.13734 0.55,-0.10821 2.2672,-0.47534 3.8159,-0.81585 z m 16.6841,-7.52888 c 0,-9.61842 0.085,-10.00219 2.3302,-10.56579 1.2816,-0.32167 4.2842,-0.44274 6.6723,-0.26905 2.3881,0.17368 4.527,0.87829 4.7531,1.56579 0.2989,0.90901 -1.2657,1.25 -5.7356,1.25 h -6.1467 l 0.3133,3.25 c 0.3056,3.16933 0.4437,3.2575 5.5634,3.55226 2.8875,0.16624 5.25,0.72874 5.25,1.25 0,0.52126 -2.475,0.94774 -5.5,0.94774 h -5.5 v 3.5 3.5 h 5.941 c 3.2675,0 6.2191,0.45 6.559,1 0.3912,0.63298 -2.1563,1 -6.941,1 h -7.559 z m 39,0.0879 c 0,-8.09864 0.2869,-10.00311 1.5818,-10.5 0.87,-0.33385 4.02,-0.60699 7,-0.60699 4.1495,0 5.4182,0.35123 5.4182,1.5 0,1.16421 -1.3237,1.5 -5.913,1.5 h -5.913 l 0.163,3.25 c 0.1601,3.19159 0.2573,3.25543 5.413,3.55226 2.8875,0.16624 5.25,0.70523 5.25,1.19774 0,0.49251 -2.3625,1.0315 -5.25,1.19774 l -5.25,0.3023 v 3.44385 3.44385 l 5.6491,-0.26167 c 3.2135,-0.14886 5.9336,0.19869 6.309,0.80614 0.4457,0.72113 -1.7943,1.06783 -6.8991,1.06783 h -7.559 z m 23.9799,8.36884 c -0.6957,-0.83829 -0.9866,-1.80241 -0.6466,-2.1425 0.3401,-0.34008 1.3198,-0.0362 2.1772,0.67536 0.8573,0.71154 2.9244,1.25487 4.5935,1.20742 1.669,-0.0475 3.6517,-0.5984 4.4059,-1.22431 0.7542,-0.62591 1.1124,-1.8126 0.796,-2.63709 -0.3164,-0.82448 -3.019,-2.57981 -6.0059,-3.90074 -5.1312,-2.26928 -5.4132,-2.5819 -5.1153,-5.67087 0.2319,-2.40419 1.0336,-3.61175 3.0301,-4.56385 1.8199,-0.86786 3.7754,-1.01984 5.932,-0.46101 1.7694,0.4585 3.3814,1.32647 3.5822,1.9288 0.2376,0.71278 -1.4844,1.0459 -4.932,0.95406 -4.6774,-0.12459 -5.297,0.0928 -5.297,1.8589 0,1.39878 1.418,2.67753 4.7169,4.25384 2.5943,1.23961 5.2137,3.18228 5.821,4.31705 0.8581,1.60323 0.7488,2.60565 -0.4899,4.49617 -1.3263,2.02422 -2.4096,2.43294 -6.4486,2.43294 -3.1294,0 -5.304,-0.54164 -6.1195,-1.52417 z m 24.2351,-8.72579 0.285,-10.25 6,0.21461 c 4.7649,0.17043 6.3602,0.65639 7.75,2.36078 0.9625,1.1804 1.75,3.24178 1.75,4.58085 0,1.33907 -1.1045,3.53921 -2.4545,4.88921 -1.8861,1.88607 -3.5073,2.45455 -7,2.45455 -4.3839,0 -4.5455,0.10667 -4.5455,3 0,1.65 -0.4657,3 -1.035,3 -0.6645,0 -0.933,-3.6688 -0.75,-10.25 z m 11.9041,0.35467 c 2.0124,-1.62959 2.2005,-2.29559 1.3414,-4.75 -0.9049,-2.58514 -1.4931,-2.88321 -6.2299,-3.15693 l -5.2306,-0.30226 v 5.05226 5.05226 h 3.8892 c 2.3277,0 4.829,-0.76099 6.2299,-1.89533 z m 12.8809,-0.0856 c 0,-9.69818 0.068,-9.99799 2.3972,-10.5826 1.3184,-0.33091 4.3223,-0.44035 6.6753,-0.24322 2.3529,0.19714 4.4617,0.90931 4.6861,1.5826 0.2921,0.87612 -1.3215,1.22417 -5.6753,1.22417 h -6.0833 v 3.5 3.5 h 5.559 c 3.4514,0 5.3247,0.37914 4.941,1 -0.3399,0.55 -2.8415,1 -5.559,1 h -4.941 v 3.5 3.5 h 5.941 c 3.2675,0 6.2191,0.45 6.559,1 0.3912,0.63298 -2.1563,1 -6.941,1 h -7.559 z m 26.2635,8.04833 c -1.23,-1.02634 -2.7111,-3.11454 -3.2913,-4.64045 -0.5801,-1.52591 -0.7879,-3.98969 -0.4616,-5.47507 0.3262,-1.48538 1.5823,-3.62723 2.7913,-4.75967 1.2089,-1.13243 3.4349,-2.52755 4.9466,-3.10026 1.9816,-0.75074 3.7739,-0.69957 6.4235,0.18339 2.0212,0.67357 3.8833,1.85889 4.1379,2.63403 0.3455,1.05162 -0.016,1.19881 -1.4234,0.5799 -1.0376,-0.45619 -3.6865,-1.01055 -5.8865,-1.2319 -3.0638,-0.30826 -4.5266,0.0918 -6.25,1.70905 -1.5626,1.4664 -2.25,3.26409 -2.25,5.88399 0,2.41426 0.7341,4.56044 2.039,5.96105 1.353,1.45229 3.2254,2.18856 5.5657,2.18856 1.9397,0 4.3699,-0.45122 5.4004,-1.0027 1.1767,-0.62977 2.0925,-0.64843 2.4622,-0.0502 0.3238,0.52389 -0.2943,1.42511 -1.3735,2.00271 -1.0793,0.57759 -3.9044,1.0352 -6.2781,1.0169 -2.7067,-0.0209 -5.1495,-0.72896 -6.5522,-1.89935 z m 24.7365,-8.06738 c 0,-6 0.4,-10 1,-10 0.6,0 1,4 1,10 0,6 -0.4,10 -1,10 -0.6,0 -1,-4 -1,-10 z m 11,9.41424 c 0,-0.32217 1.8869,-4.82217 4.1931,-10 2.3061,-5.17783 4.7923,-9.41424 5.5247,-9.41424 0.7324,0 1.7304,1.0125 2.2177,2.25 0.4873,1.2375 2.4898,5.7375 4.45,10 2.5199,5.47967 3.1637,7.75 2.1977,7.75 -0.7515,0 -1.6487,-1.125 -1.9938,-2.5 -0.5822,-2.3195 -1.0611,-2.5 -6.6332,-2.5 -5.4859,0 -6.088,0.21636 -6.9562,2.5 -0.5228,1.375 -1.4116,2.5 -1.9752,2.5 -0.5637,0 -1.0248,-0.26359 -1.0248,-0.58576 z m 13.4407,-8.66424 c -0.3817,-1.2375 -1.3635,-3.56464 -2.1817,-5.17141 -1.2902,-2.53378 -1.6124,-2.69839 -2.4283,-1.24058 -0.5173,0.92446 -1.5969,3.2516 -2.3991,5.17142 l -1.4584,3.49057 h 4.5808 c 4.2894,0 4.5366,-0.14311 3.8867,-2.25 z m 15.5593,-0.75 c 0,-6 0.4,-10 1,-10 0.5926,0 1,3.66667 1,9 0,6.47682 0.3504,9.02971 1.25,9.10596 0.6875,0.0583 2.4429,0.029 3.9008,-0.065 1.458,-0.094 2.9471,0.30831 3.3091,0.89404 0.4354,0.7045 -1.2234,1.06496 -4.9009,1.06496 h -5.559 z m 20,0.059 c 0,-5.54864 0.4418,-10.21406 1,-10.55902 0.6426,-0.39712 1,3.15628 1,9.94098 0,6.37268 -0.3965,10.55902 -1,10.55902 -0.5996,0 -1,-3.98033 -1,-9.94098 z m 14.215,-0.309 0.285,-10.25 3.5,-0.19621 c 1.925,-0.10791 5.1634,0.24044 7.1964,0.77411 2.033,0.53367 4.6205,2.14515 5.75,3.58106 1.2827,1.63066 2.0536,4.09065 2.0536,6.55282 0,3.02369 -0.681,4.62305 -2.9231,6.86514 -2.6413,2.64132 -3.5604,2.92308 -9.535,2.92308 h -6.6119 z m 14.3305,5.79545 c 1.5472,-1.54723 2.4545,-3.59708 2.4545,-5.54545 0,-1.94837 -0.9073,-3.99822 -2.4545,-5.54545 -1.9575,-1.95742 -3.4765,-2.45455 -7.5,-2.45455 h -5.0455 v 8 8 h 5.0455 c 4.0235,0 5.5425,-0.49713 7.5,-2.45455 z m 11.4545,3.57951 c 0,-0.48128 2.0435,-5.27781 4.541,-10.65897 2.7128,-5.84486 4.905,-9.41797 5.445,-8.87496 0.4972,0.49993 2.939,5.29647 5.4262,10.65897 2.9617,6.38527 4.0713,9.75 3.2156,9.75 -0.7187,0 -1.8193,-1.125 -2.4458,-2.5 -1.0156,-2.22898 -1.74,-2.5 -6.682,-2.5 -4.942,0 -5.6664,0.27102 -6.682,2.5 -0.6264,1.375 -1.5168,2.5 -1.9785,2.5 -0.4617,0 -0.8395,-0.39377 -0.8395,-0.87504 z m 14,-6.49784 c 0,-0.20509 -0.9593,-2.54149 -2.1317,-5.192 l -2.1317,-4.81912 -2.3231,4.442 c -1.2777,2.4431 -2.3435,4.7795 -2.3683,5.192 -0.025,0.4125 1.9798,0.75 4.4548,0.75 2.475,0 4.5,-0.1678 4.5,-0.37288 z m 14.9452,6.12288 c -0.03,-0.6875 -0.062,-4.95439 -0.07,-9.48199 -0.01,-4.52759 0.2973,-8.73786 0.6794,-9.35615 0.4392,-0.71052 2.6248,-0.94105 5.9398,-0.62652 2.8847,0.27371 6.3593,1.2278 7.7212,2.12018 1.362,0.89239 2.9957,2.76239 3.6304,4.15556 0.6348,1.39316 1.1542,3.44144 1.1542,4.55171 0,1.11028 -0.5027,3.00161 -1.1171,4.20295 -0.6144,1.20134 -2.0769,2.96175 -3.25,3.91202 -1.5037,1.21807 -3.9767,1.73433 -8.3829,1.75 -4.3166,0.0154 -6.267,-0.36445 -6.3049,-1.22776 z m 13.7531,-2.25124 c 1.1788,-0.82569 2.4339,-2.82429 2.7891,-4.44135 0.3693,-1.68142 0.1192,-3.92846 -0.5842,-5.24876 -0.6764,-1.26976 -1.9439,-2.85684 -2.8165,-3.52685 -0.8727,-0.67 -3.7242,-1.2325 -6.3367,-1.25 l -4.75,-0.0318 v 8 8 h 4.7775 c 2.63,0 5.7409,-0.67483 6.9208,-1.50124 z m -97.6983,-41.10005 c -3.025,-0.80832 -7.75,-2.62304 -10.5,-4.03272 -2.75,-1.40968 -7.1609,-4.65621 -9.802,-7.21452 -2.641,-2.55831 -6.1095,-7.35147 -7.7076,-10.65147 -1.5982,-3.3 -3.3946,-8.8125 -3.9921,-12.25 -0.7865,-4.52526 -0.7813,-7.93173 0.019,-12.34415 0.6078,-3.35179 1.8527,-7.73929 2.7665,-9.75 0.9137,-2.01072 2.9563,-5.60248 4.5391,-7.9817 1.5828,-2.37922 5.5757,-6.31191 8.8731,-8.73932 3.4569,-2.544813 8.7515,-5.264783 12.5051,-6.424143 4.4707,-1.38087 9.319,-2.01069 15.4782,-2.01069 6.9438,0 10.671,0.57158 16.5109,2.53197 4.1485,1.39258 9.5153,3.8892 11.9263,5.548043 2.4111,1.65884 4.3838,3.22911 4.3838,3.4895 0,0.26038 -2.2911,3.38876 -5.0913,6.95196 -2.8002,3.56319 -5.4451,6.47853 -5.8776,6.47853 -0.4324,0 -1.4039,-0.74776 -2.1587,-1.66169 -0.7548,-0.91393 -3.7032,-2.69422 -6.5519,-3.9562 -2.8487,-1.26198 -7.4253,-2.59242 -10.1701,-2.95654 -3.5054,-0.46501 -6.6056,-0.154 -10.418,1.04513 -2.9851,0.93893 -7.0221,3.12963 -8.971,4.86822 -1.949,1.73859 -4.6051,5.18608 -5.9025,7.66108 -1.7878,3.4104 -2.3528,6.07387 -2.3336,11 0.019,4.89389 0.6366,7.70946 2.4995,11.39473 1.4108,2.79102 4.363,6.33691 6.8689,8.25027 2.417,1.84555 6.2422,3.85497 8.5004,4.46538 2.2582,0.6104 6.3559,0.87812 9.1059,0.59493 2.75,-0.2832 6.9125,-1.2816 9.25,-2.21868 l 4.25,-1.70379 v -10.93186 -10.93186 l 8.25,0.29044 8.25,0.29044 v 16 16 l -7.682,3.78799 c -4.2251,2.08339 -10.7501,4.43808 -14.5,5.23264 -3.7499,0.79455 -9.068,1.42284 -11.818,1.3962 -2.75,-0.0267 -7.475,-0.7098 -10.5,-1.51812 z m 170.2645,0.0597 c -2.8795,-0.77549 -7.5325,-2.57402 -10.3402,-3.99675 -2.8076,-1.42273 -7.0758,-4.4037 -9.485,-6.62437 -2.4091,-2.22067 -5.5267,-6.08877 -6.9279,-8.59576 -1.4011,-2.50699 -3.2671,-7.03331 -4.1466,-10.05849 -1.116,-3.83895 -1.4606,-7.9443 -1.1408,-13.59168 0.316,-5.58072 1.228,-9.88817 2.9394,-13.88217 1.3647,-3.18494 4.1044,-7.73254 6.0882,-10.10578 1.9838,-2.37323 6.0012,-5.86624 8.9276,-7.762233 2.9265,-1.89599 7.8354,-4.21089 10.9087,-5.14422 3.4745,-1.05516 8.9844,-1.69696 14.5685,-1.69696 5.3181,0 11.1764,0.65207 14.3648,1.59894 2.9613,0.87941 7.6555,3.07318 10.4315,4.87504 2.776,1.801853 6.4566,4.794833 8.179,6.651063 1.7224,1.85623 4.2352,5.17496 5.5839,7.37496 1.3487,2.2 2.7789,5.125 3.1781,6.5 0.3993,1.375 1.0907,5.48114 1.5366,9.12475 0.4458,3.64362 0.4429,8.9507 -0.01,11.79353 -0.4494,2.84282 -1.9418,7.62537 -3.3164,10.62789 -1.3746,3.00251 -4.7653,7.85516 -7.535,10.78365 -2.7696,2.92849 -7.4656,6.55395 -10.4355,8.05659 -2.9699,1.50263 -7.8157,3.37506 -10.7684,4.16095 -2.9527,0.7859 -8.0686,1.40463 -11.3686,1.37496 -3.3,-0.0297 -8.3559,-0.68843 -11.2354,-1.46391 z m 20.7355,-17.53932 c 2.475,-1.12035 5.7787,-3.24796 7.3416,-4.72804 1.5629,-1.48008 3.8024,-4.49105 4.9768,-6.69105 1.6258,-3.04572 2.1408,-5.78928 2.1584,-11.5 0.019,-6.17303 -0.4191,-8.28792 -2.4768,-11.9533 -1.375,-2.44932 -4.4021,-5.90223 -6.7269,-7.67313 -2.4615,-1.87498 -6.552,-3.74014 -9.7936,-4.46558 -4.854,-1.08627 -6.2972,-1.0165 -11.2731,0.54496 -4.0866,1.28241 -7.0269,3.10706 -10.3585,6.42809 -3.4722,3.46125 -5.0753,6.09332 -6.3209,10.37805 -1.3699,4.7122 -1.4729,6.68437 -0.5753,11.00818 0.6014,2.89713 2.0958,6.89621 3.3209,8.88684 1.2251,1.99063 3.6567,4.80736 5.4036,6.25941 1.7469,1.45204 4.8969,3.27131 7,4.04282 2.1031,0.7715 5.8488,1.42456 8.3238,1.45124 2.4873,0.0268 6.5127,-0.86257 9,-1.98849 z M 35.749996,124.86945 c 0,-22 0,-40.337503 0,-40.750003 0,-0.4125 4.5252,-0.75 10.056,-0.75 h 10.056 l 2.4064,4.5 c 1.3236,2.475 6.2484,12.543733 10.944,22.374953 4.6957,9.83122 8.5376,18.24216 8.5376,18.69098 0,0.44882 0.4514,1.09502 1.0031,1.43601 0.5639,0.34851 4.3368,-6.30302 8.6165,-15.19098 4.1874,-8.69603 9.3404,-19.52346 11.4511,-24.06096 l 3.837694,-8.250003 h 10.5458 10.5458 v 41.000003 41 h -8.4837 -8.4836 l -0.2664,-26.39714 -0.2663,-26.39713 -4.44539,9.64713 c -2.444904,5.30593 -6.331904,13.69714 -8.637804,18.64714 -2.3058,4.95 -4.8949,10.6875 -5.7536,12.75 l -1.5611,3.75 h -6.348 -6.348 l -6.953,-15.16491 c -3.8242,-8.3407 -8.382,-18.1282 -10.1284,-21.75 l -3.1753,-6.58509 -0.075,25.75 -0.075,25.75 h -8.5 -8.5 z m 95.999994,39.60362 c 0,-0.21801 4.5553,-10.90551 10.1229,-23.75 5.5675,-12.84449 12.3872,-28.52862 15.1548,-34.85362 2.7676,-6.325 6.0632,-13.975 7.3235,-17.000003 l 2.2915,-5.5 9.8968,-0.28325 9.8967,-0.28325 4.5979,10.783253 c 2.5289,5.93079 10.2495,24.04369 17.1569,40.25089 6.9075,16.20721 12.559,29.83545 12.559,30.28499 0,0.44953 -4.5681,0.68909 -10.1512,0.53235 l -10.1513,-0.28498 -2.4245,-6.48877 c -1.3334,-3.56882 -2.9037,-7.06623 -3.4894,-7.77202 -0.8105,-0.97657 -5.3628,-1.21823 -19.049,-1.01122 l -17.9839,0.27201 -3.1253,7.73889 -3.1254,7.73889 -9.75,0.0111 c -5.3625,0.006 -9.75,-0.16726 -9.75,-0.38527 z m 56,-31.38919 c 0,-0.43207 -2.5184,-7.06957 -5.5965,-14.75 -3.078,-7.68044 -5.7205,-14.09438 -5.8721,-14.25321 -0.1516,-0.15883 -2.9957,6.47867 -6.3202,14.75 l -6.0446,15.03878 h 11.9167 c 6.5542,0 11.9167,-0.35351 11.9167,-0.78557 z m 41,-9.21443 V 82.869447 h 20.5526 c 14.9352,0 22.3831,0.42073 27.25,1.53934 4.3026,0.98892 8.3849,2.77228 11.4167,4.98742 3.0172,2.204513 5.5418,5.165733 7,8.210663 1.8814,3.92875 2.2807,6.4305 2.2807,14.28927 0,8.25719 -0.3409,10.18943 -2.5584,14.5 -1.4676,2.85297 -4.3194,6.25234 -6.6889,7.97331 -2.2718,1.65 -4.158,3.36219 -4.1916,3.80487 -0.034,0.44268 1.677,3.36768 3.8014,6.5 2.1243,3.13232 5.7243,8.74056 8,12.46274 2.2756,3.72219 4.1375,6.99991 4.1375,7.28384 0,0.28392 -4.7763,0.38849 -10.614,0.23238 l -10.614,-0.28383 -6.136,-11.22363 -6.136,-11.22364 -9.25,-0.0264 -9.25,-0.0264 v 11.5 11.5 h -9.5 -9.5 z m 44.7331,-0.31296 c 1.7782,-0.94649 3.9658,-3.1378 4.8613,-4.86957 1.1084,-2.14351 1.4796,-4.69521 1.1627,-7.9932 -0.2671,-2.78038 -1.2732,-5.75118 -2.3613,-6.97242 -1.0427,-1.17033 -3.3438,-2.74077 -5.1137,-3.48987 -2.0305,-0.85941 -7.1042,-1.36198 -13.75,-1.36198 h -10.5321 v 12.83333 c 0,7.05834 0.3375,13.17645 0.75,13.59582 0.4125,0.41937 5.475,0.58615 11.25,0.37063 7.3985,-0.27611 11.455,-0.90016 13.7331,-2.11274 z m 74.2669,0.27403 V 82.791577 l 8.7068,0.28894 8.7068,0.28893 19.0432,25.265743 19.0432,25.26575 0.2669,-25.51575 0.2669,-25.515743 h 8.9831 8.9831 v 41.000003 41 l -8.75,-0.006 -8.75,-0.006 -18.3623,-24.5043 c -10.0993,-13.47759 -18.7618,-24.7514 -19.25,-25.05313 -0.5079,-0.31388 -0.8877,10.17326 -0.8877,24.51041 v 25.05902 h -9 -9 z m 91,0.0247 V 82.840977 l 31.25,0.26424 31.25,0.26425 0.2921,7.750003 0.292,7.75 h -22.042 -22.0421 v 8.5 8.5 h 19.5 19.5 v 8 8 h -19.5 -19.5 v 8.5 8.5 h 22.5 22.5 v 8 8 h -32 -32 z m 164,-0.0663 V 82.708347 l 23.25,0.39784 c 19.3983,0.33192 24.0628,0.70098 28.156,2.22771 2.7496,1.02557 6.9957,3.85303 9.6603,6.432733 3.6855,3.568 5.1394,5.93558 6.4667,10.53063 1.1534,3.99291 1.5516,7.92977 1.22,12.0612 -0.2708,3.37339 -1.3786,8.1369 -2.4618,10.58559 -1.0832,2.44869 -3.2793,5.65887 -4.8803,7.13373 -1.601,1.47487 -3.891,3.49385 -5.0888,4.48664 l -2.1779,1.80506 6.2141,9.5 c 3.4178,5.225 7.2471,11.1875 8.5095,13.25 l 2.2953,3.75 -10.8315,-0.0124 -10.8316,-0.0123 -6.3204,-11.48765 -6.3203,-11.48764 h -8.9297 -8.9296 v 11.5 11.5 h -9.5 -9.5 z m 44.6353,-0.33633 c 1.7244,-1.03334 3.8619,-3.40254 4.75,-5.26488 0.8881,-1.86235 1.6147,-4.54031 1.6147,-5.95103 0,-1.41072 -0.7534,-4.15254 -1.6741,-6.09293 -1.1311,-2.38353 -2.9964,-4.12849 -5.75,-5.37916 -3.1038,-1.40966 -6.5206,-1.85642 -14.3259,-1.87315 l -10.25,-0.022 v 13.60793 13.60792 l 11.25,-0.37697 c 8.7454,-0.29304 11.948,-0.79524 14.3853,-2.25577 z"
       id="path1-2" />
  </g>
</svg>
