<?xml version="1.0" encoding="UTF-8" standalone="no"?>
<svg
   width="167.603"
   height="103.5"
   viewBox="0 0 167.603 103.5"
   version="1.1"
   id="svg1"
   sodipodi:docname="LOGO-LETRAS-BLANCAS.svg"
   inkscape:version="1.4 (e7c3feb1, 2024-10-09)"
   xmlns:inkscape="http://www.inkscape.org/namespaces/inkscape"
   xmlns:sodipodi="http://sodipodi.sourceforge.net/DTD/sodipodi-0.dtd"
   xmlns="http://www.w3.org/2000/svg"
   xmlns:svg="http://www.w3.org/2000/svg">
  <defs
     id="defs1" />
  <sodipodi:namedview
     id="namedview1"
     pagecolor="#ffffff"
     bordercolor="#000000"
     borderopacity="0.25"
     inkscape:showpageshadow="2"
     inkscape:pageopacity="0.0"
     inkscape:pagecheckerboard="0"
     inkscape:deskcolor="#d1d1d1"
     showgrid="false"
     inkscape:zoom="4.0452737"
     inkscape:cx="72.924608"
     inkscape:cy="107.5329"
     inkscape:window-width="1696"
     inkscape:window-height="1387"
     inkscape:window-x="1728"
     inkscape:window-y="405"
     inkscape:window-maximized="0"
     inkscape:current-layer="svg1" />
  <g
     id="g3"
     data-name="Grupo 10634"
     transform="matrix(0.96312803,0,0,0.9826451,3.460866,2.47208)">
    <g
       id="g2"
       data-name="Grupo 228">
      <path
         id="path1"
         data-name="Trazado 39"
         d="m 59.894,395.167 a 5.707,5.707 0 0 1 -1.269,-1.018 4.533,4.533 0 0 1 -0.478,-0.609 4,4 0 0 1 -0.35,-0.661 1.366,1.366 0 0 1 -0.068,-0.2 0.839,0.839 0 0 1 -0.026,-0.2 0.713,0.713 0 0 1 0.032,-0.212 0.67,0.67 0 0 1 0.1,-0.192 0.766,0.766 0 0 1 0.137,-0.146 0.835,0.835 0 0 1 0.173,-0.107 h 0.01 a 1.256,1.256 0 0 1 0.171,-0.058 0.742,0.742 0 0 1 0.171,-0.024 0.672,0.672 0 0 1 0.39,0.128 1.166,1.166 0 0 1 0.3,0.32 l 0.012,0.017 0.008,0.021 a 2.855,2.855 0 0 0 0.259,0.471 3.366,3.366 0 0 0 0.363,0.441 3.88,3.88 0 0 0 0.451,0.4 4.064,4.064 0 0 0 0.517,0.331 v 0 a 5.017,5.017 0 0 0 1.19,0.47 5.131,5.131 0 0 0 1.275,0.158 4.41,4.41 0 0 0 0.705,-0.057 4.511,4.511 0 0 0 0.7,-0.172 4.368,4.368 0 0 0 0.658,-0.275 3.852,3.852 0 0 0 0.574,-0.368 3.268,3.268 0 0 0 0.507,-0.5 3.2,3.2 0 0 0 0.383,-0.6 2.856,2.856 0 0 0 0.241,-0.685 3.568,3.568 0 0 0 0.08,-0.777 2.293,2.293 0 0 0 -0.3,-1.165 2.884,2.884 0 0 0 -0.92,-0.938 c -0.172,-0.111 -0.357,-0.219 -0.557,-0.323 -0.2,-0.104 -0.407,-0.2 -0.622,-0.288 -0.215,-0.088 -0.467,-0.186 -0.753,-0.291 -0.286,-0.105 -0.588,-0.211 -0.907,-0.318 a 12.385,12.385 0 0 1 -1.8,-0.587 7.236,7.236 0 0 1 -1.4,-0.763 4.055,4.055 0 0 1 -1.234,-1.326 3.354,3.354 0 0 1 -0.419,-1.66 3.888,3.888 0 0 1 0.112,-0.94 3.651,3.651 0 0 1 0.334,-0.865 4.144,4.144 0 0 1 0.521,-0.754 4.19,4.19 0 0 1 0.669,-0.623 5.133,5.133 0 0 1 0.753,-0.472 5.52,5.52 0 0 1 0.833,-0.344 6.014,6.014 0 0 1 0.876,-0.211 5.61,5.61 0 0 1 0.891,-0.071 6.872,6.872 0 0 1 1.476,0.154 5.728,5.728 0 0 1 1.321,0.465 4.624,4.624 0 0 1 1.115,0.773 4.71,4.71 0 0 1 0.835,1.051 0.485,0.485 0 0 1 0.076,0.149 0.622,0.622 0 0 1 0.027,0.184 0.7,0.7 0 0 1 -0.067,0.3 0.909,0.909 0 0 1 -0.18,0.251 l -0.016,0.013 a 0.782,0.782 0 0 1 -0.223,0.134 0.7,0.7 0 0 1 -0.256,0.049 0.79,0.79 0 0 1 -0.282,-0.051 0.764,0.764 0 0 1 -0.243,-0.15 l -0.016,-0.014 -0.015,-0.021 a 4.7,4.7 0 0 0 -0.735,-0.8 3.523,3.523 0 0 0 -0.815,-0.526 4.3,4.3 0 0 0 -0.932,-0.3 5.384,5.384 0 0 0 -1.056,-0.1 4.173,4.173 0 0 0 -0.593,0.042 4.642,4.642 0 0 0 -0.607,0.128 3.921,3.921 0 0 0 -0.573,0.213 3.39,3.39 0 0 0 -0.507,0.294 v 0 a 3.044,3.044 0 0 0 -0.473,0.4 2.8,2.8 0 0 0 -0.361,0.475 2.126,2.126 0 0 0 -0.231,0.537 2.5,2.5 0 0 0 -0.086,0.617 1.9,1.9 0 0 0 0.312,1.065 2.774,2.774 0 0 0 0.972,0.854 v 0 c 0.163,0.1 0.333,0.185 0.51,0.267 0.177,0.082 0.353,0.154 0.537,0.22 0.184,0.066 0.394,0.135 0.62,0.205 0.226,0.07 0.477,0.145 0.742,0.22 h 0.014 c 0.407,0.142 0.776,0.278 1.1,0.4 0.324,0.122 0.637,0.252 0.928,0.378 a 8.3,8.3 0 0 1 0.8,0.4 7.38,7.38 0 0 1 0.72,0.459 v 0 a 4.656,4.656 0 0 1 0.7,0.629 3.99,3.99 0 0 1 0.52,0.726 3.673,3.673 0 0 1 0.434,1.816 5.171,5.171 0 0 1 -0.109,1.077 4.462,4.462 0 0 1 -0.335,0.988 4.911,4.911 0 0 1 -1.235,1.628 v 0 a 5.413,5.413 0 0 1 -0.823,0.572 5.933,5.933 0 0 1 -0.932,0.422 6.059,6.059 0 0 1 -2.038,0.351 6.389,6.389 0 0 1 -0.9,-0.063 5.762,5.762 0 0 1 -0.857,-0.186 6.443,6.443 0 0 1 -1.553,-0.653 z m 27.279,0.253 a 0.828,0.828 0 0 1 -0.053,-0.293 v -15.09 a 0.823,0.823 0 0 1 0.058,-0.3 0.756,0.756 0 0 1 0.174,-0.256 v 0 a 0.762,0.762 0 0 1 0.25,-0.163 0.784,0.784 0 0 1 0.3,-0.055 h 4.664 a 6.132,6.132 0 0 1 1.2,0.116 5.812,5.812 0 0 1 1.138,0.35 6.028,6.028 0 0 1 1.031,0.557 5.8,5.8 0 0 1 0.892,0.741 6.036,6.036 0 0 1 1.611,3.05 6.193,6.193 0 0 1 0.113,1.185 5.99,5.99 0 0 1 -0.115,1.179 5.809,5.809 0 0 1 -0.346,1.122 6.145,6.145 0 0 1 -0.549,1.024 5.864,5.864 0 0 1 -0.727,0.886 v 0 a 5.8,5.8 0 0 1 -0.9,0.725 6.179,6.179 0 0 1 -1.035,0.543 6,6 0 0 1 -1.141,0.342 6.154,6.154 0 0 1 -1.2,0.115 h -3.859 v 3.935 a 0.767,0.767 0 0 1 -0.058,0.3 0.786,0.786 0 0 1 -0.423,0.423 0.766,0.766 0 0 1 -0.3,0.059 0.821,0.821 0 0 1 -0.313,-0.058 0.714,0.714 0 0 1 -0.256,-0.179 0.779,0.779 0 0 1 -0.157,-0.249 z m 6.331,-14.5 a 4.5,4.5 0 0 0 -0.916,-0.09 h -3.909 v 8.8 h 3.883 a 4.723,4.723 0 0 0 0.927,-0.089 4.31,4.31 0 0 0 1.622,-0.69 4.148,4.148 0 0 0 0.653,-0.561 v 0 a 4.2,4.2 0 0 0 0.511,-0.647 4.418,4.418 0 0 0 0.383,-0.743 4.345,4.345 0 0 0 0.237,-0.807 4.49,4.49 0 0 0 0.078,-0.837 4.391,4.391 0 0 0 -0.079,-0.831 4.342,4.342 0 0 0 -0.237,-0.8 4.569,4.569 0 0 0 -0.9,-1.42 4.378,4.378 0 0 0 -0.656,-0.579 4.278,4.278 0 0 0 -0.759,-0.436 4,4 0 0 0 -0.845,-0.272 z m 21.691,14.528 a 0.793,0.793 0 0 1 -0.059,-0.309 0.868,0.868 0 0 1 0.018,-0.177 0.7,0.7 0 0 1 0.052,-0.155 l 6.5,-15.078 0.009,-0.019 a 0.873,0.873 0 0 1 0.3,-0.334 0.777,0.777 0 0 1 0.426,-0.119 0.759,0.759 0 0 1 0.43,0.121 0.773,0.773 0 0 1 0.279,0.351 l 6.509,15.09 a 0.828,0.828 0 0 1 0.052,0.16 0.846,0.846 0 0 1 0.018,0.172 0.739,0.739 0 0 1 -0.417,0.69 v 0 a 0.718,0.718 0 0 1 -0.167,0.058 0.856,0.856 0 0 1 -0.177,0.018 0.789,0.789 0 0 1 -0.224,-0.032 0.854,0.854 0 0 1 -0.207,-0.093 v 0 a 0.831,0.831 0 0 1 -0.169,-0.144 0.814,0.814 0 0 1 -0.128,-0.19 l -1.537,-3.608 h -8.523 l -1.534,3.592 a 0.823,0.823 0 0 1 -0.176,0.249 0.757,0.757 0 0 1 -0.249,0.158 0.789,0.789 0 0 1 -0.144,0.045 0.88,0.88 0 0 1 -0.15,0.014 0.788,0.788 0 0 1 -0.287,-0.053 0.855,0.855 0 0 1 -0.248,-0.155 0.7,0.7 0 0 1 -0.185,-0.252 z m 10.84,-5.17 -3.6,-8.441 -3.622,8.441 z m 21.37,5.15 a 0.753,0.753 0 0 1 -0.06,-0.3 v -15.079 a 0.816,0.816 0 0 1 0.062,-0.318 0.76,0.76 0 0 1 0.188,-0.262 v 0 a 0.842,0.842 0 0 1 0.244,-0.153 0.726,0.726 0 0 1 0.281,-0.057 0.749,0.749 0 0 1 0.339,0.082 1.051,1.051 0 0 1 0.287,0.218 c 3.133,3.3 7.317,9.426 10.285,13.25 v -12.76 a 0.795,0.795 0 0 1 0.226,-0.554 v 0 a 0.77,0.77 0 0 1 0.257,-0.177 0.8,0.8 0 0 1 0.308,-0.059 0.842,0.842 0 0 1 0.313,0.056 0.694,0.694 0 0 1 0.26,0.176 0.751,0.751 0 0 1 0.156,0.258 0.865,0.865 0 0 1 0.051,0.3 v 15.078 a 0.838,0.838 0 0 1 -0.046,0.277 0.723,0.723 0 0 1 -0.143,0.241 0.746,0.746 0 0 1 -0.212,0.174 0.756,0.756 0 0 1 -0.259,0.084 h -0.02 -0.15 a 0.564,0.564 0 0 1 -0.22,-0.045 0.6,0.6 0 0 1 -0.178,-0.119 c -0.041,-0.036 -0.082,-0.069 -0.121,-0.107 l -0.06,-0.088 L 148.9,382.28 v 12.847 a 0.767,0.767 0 0 1 -0.057,0.3 0.782,0.782 0 0 1 -1.024,0.422 0.765,0.765 0 0 1 -0.249,-0.169 v 0 a 0.767,0.767 0 0 1 -0.169,-0.249 z m 32.463,0 a 0.753,0.753 0 0 1 -0.06,-0.3 v -15.079 a 0.8,0.8 0 0 1 0.063,-0.319 0.738,0.738 0 0 1 0.19,-0.262 v 0 a 0.878,0.878 0 0 1 0.245,-0.156 0.765,0.765 0 0 1 0.283,-0.055 0.75,0.75 0 0 1 0.338,0.083 1.064,1.064 0 0 1 0.288,0.219 c 3.146,3.324 7.3,9.409 10.284,13.249 v -12.759 a 0.8,0.8 0 0 1 0.058,-0.3 0.823,0.823 0 0 1 0.167,-0.253 v 0 a 0.752,0.752 0 0 1 0.255,-0.177 0.81,0.81 0 0 1 0.309,-0.059 0.864,0.864 0 0 1 0.312,0.055 0.7,0.7 0 0 1 0.261,0.177 0.75,0.75 0 0 1 0.156,0.258 0.866,0.866 0 0 1 0.051,0.3 v 15.078 a 0.8,0.8 0 0 1 -0.047,0.277 0.732,0.732 0 0 1 -0.142,0.243 0.746,0.746 0 0 1 -0.472,0.256 h -0.019 -0.15 a 0.547,0.547 0 0 1 -0.221,-0.046 0.572,0.572 0 0 1 -0.177,-0.119 c -0.042,-0.037 -0.083,-0.071 -0.123,-0.109 l -0.059,-0.09 -10.291,-13.26 v 12.847 a 0.76,0.76 0 0 1 -0.225,0.55 0.782,0.782 0 0 1 -0.553,0.23 0.767,0.767 0 0 1 -0.551,-0.23 0.76,0.76 0 0 1 -0.17,-0.25 z m 30.909,0.02 a 0.786,0.786 0 0 1 -0.059,-0.309 0.8,0.8 0 0 1 0.018,-0.177 0.7,0.7 0 0 1 0.052,-0.155 l 6.5,-15.078 0.01,-0.019 a 0.868,0.868 0 0 1 0.3,-0.334 0.775,0.775 0 0 1 0.425,-0.119 0.754,0.754 0 0 1 0.43,0.121 0.773,0.773 0 0 1 0.279,0.351 l 6.509,15.09 a 0.825,0.825 0 0 1 0.052,0.16 0.837,0.837 0 0 1 0.018,0.172 0.74,0.74 0 0 1 -0.418,0.69 v 0 a 0.64,0.64 0 0 1 -0.167,0.058 0.816,0.816 0 0 1 -0.4,-0.013 0.863,0.863 0 0 1 -0.206,-0.093 v 0 a 0.82,0.82 0 0 1 -0.17,-0.144 0.844,0.844 0 0 1 -0.127,-0.19 l -1.536,-3.608 h -8.537 l -1.535,3.592 a 0.827,0.827 0 0 1 -0.175,0.249 0.744,0.744 0 0 1 -0.248,0.158 0.822,0.822 0 0 1 -0.144,0.045 0.867,0.867 0 0 1 -0.15,0.014 0.789,0.789 0 0 1 -0.286,-0.053 0.839,0.839 0 0 1 -0.249,-0.155 0.709,0.709 0 0 1 -0.185,-0.252 z m 10.84,-5.17 -3.6,-8.441 -3.623,8.441 z"
         transform="translate(-57.702,-319.974)"
         fill="#fff"
         fill-rule="evenodd"
         style="fill:#000000" />
      <path
         id="path2"
         data-name="Trazado 40"
         d="m 270.468,246.955 a 0.755,0.755 0 0 0 -0.024,0.14 2.337,2.337 0 0 1 -0.616,-0.118 43.72,43.72 0 0 0 -25.946,0.562 c -1.584,0.535 -3.151,1.168 -4.671,1.778 -3.472,1.4 -6.751,2.722 -10.278,3.039 a 9.974,9.974 0 0 1 -5.959,-1.161 h 0.016 c 0.12,0 0.256,-0.014 0.376,-0.023 a 12.27,12.27 0 0 0 2.647,0.284 c 3.319,0 6.623,-1.225 9.838,-2.416 l 0.088,-0.032 a 78.568,78.568 0 0 1 17.34,-4.745 32.191,32.191 0 0 1 17.172,2.141 2.536,2.536 0 0 1 0.016,0.551 z m -59.459,7.325 v 0 a 55.257,55.257 0 0 1 -9.862,-2.961 c -2.944,-1.2 -5.847,-2.68 -8.662,-4.115 A 78.13,78.13 0 0 0 179.52,241.55 c -0.384,-0.112 -3.727,-1.158 -3.3,-2.64 a 1.039,1.039 0 0 1 0.136,-0.257 7.058,7.058 0 0 0 3.663,2.542 45.377,45.377 0 0 0 6.439,1.659 c 5,1.028 10.157,2.091 15.308,2.827 l 0.64,0.089 a 30.333,30.333 0 0 1 5.271,1.064 29.972,29.972 0 0 1 5.879,2.976 40.947,40.947 0 0 0 4.359,2.389 6.478,6.478 0 0 0 2.455,0.664 l -0.04,0.113 c -0.832,1.522 -5.2,2.129 -9.326,1.3 z M 179.121,237.7 v 0 a 5.161,5.161 0 0 0 -2.407,0.607 6.586,6.586 0 0 0 3.479,2.434 44.858,44.858 0 0 0 6.374,1.641 c 4.983,1.025 10.142,2.086 15.277,2.818 l 0.64,0.092 a 30.608,30.608 0 0 1 5.351,1.081 30.6,30.6 0 0 1 5.982,3.024 41.789,41.789 0 0 0 4.3,2.361 5.945,5.945 0 0 0 2.367,0.623 2.514,2.514 0 0 0 -0.24,-0.991 l -0.016,-0.023 a 0.962,0.962 0 0 1 -0.2,-0.4 10.135,10.135 0 0 0 -1.5,-1.939 c -4.551,-4.764 -10.654,-7.445 -14.973,-8.856 a 59.779,59.779 0 0 0 -18.668,-2.656 q -2.8,0 -5.767,0.182 z m 12.149,-13.162 v 0 c 4.647,5.645 12.853,12.327 16.3,15.037 a 42.783,42.783 0 0 1 5.415,2.679 c -0.336,-0.381 -0.672,-0.761 -1.016,-1.133 a 72.011,72.011 0 0 0 -5.343,-5.054 l -9.366,-8.292 c -3.319,-2.941 -6.734,-5.987 -9.214,-9.777 0.04,2.332 1.623,4.6 3.223,6.54 z m -3.143,-7.586 v 0 c 0,0.031 -0.024,0.106 -0.032,0.239 v 0.014 l 0.016,0.019 c 2.472,3.975 6.03,7.132 9.478,10.184 l 9.366,8.292 c 1.808,1.6 3.679,3.26 5.375,5.088 0.368,0.4 0.736,0.81 1.1,1.218 0.364,0.408 0.712,0.8 1.08,1.195 0.712,0.47 1.424,0.972 2.112,1.509 a 36.861,36.861 0 0 0 -4.415,-5.823 c -1.36,-1.516 -2.879,-2.951 -4.223,-4.217 -6.639,-6.258 -12.653,-11.848 -18.4,-17.066 -0.264,-0.136 -0.528,-0.275 -0.784,-0.409 a 1.975,1.975 0 0 0 -0.672,-0.243 z m 16.684,-10.115 v 0 0.014 c 1.424,7.419 3.263,15.957 7.006,23.493 a 38.913,38.913 0 0 1 6.526,8.932 c 0.024,-0.746 0.08,-1.488 0.16,-2.23 l -0.016,-0.04 a 43.023,43.023 0 0 0 -4.967,-18.368 0.919,0.919 0 0 1 -0.2,-0.37 c -0.584,-1.064 -1.2,-2.1 -1.864,-3.105 a 81.611,81.611 0 0 0 -6.646,-8.326 z m 11.853,5.192 v 0 a 35.834,35.834 0 0 0 0.608,6.662 c 0.12,0.649 0.256,1.3 0.392,1.945 a 30.61,30.61 0 0 1 0.744,4.662 43.96,43.96 0 0 0 -3.151,-7.551 19.939,19.939 0 0 1 1.408,-5.718 z m 3.767,5.04 v 0 a 16.47,16.47 0 0 1 0.848,8.437 41.326,41.326 0 0 0 -1.592,4.871 c -0.224,-1.155 -0.488,-2.3 -0.8,-3.437 a 22.7,22.7 0 0 0 -0.744,-6.4 c -0.136,-0.644 -0.28,-1.287 -0.392,-1.931 a 36.578,36.578 0 0 1 -0.584,-7.7 c 0.072,-0.133 0.136,-0.267 0.192,-0.4 a 41.666,41.666 0 0 1 3.071,6.565 z m 2.8,-10.957 v 0 a 16.765,16.765 0 0 0 -3.079,5.459 36.551,36.551 0 0 1 2.136,4.864 21.6,21.6 0 0 1 1.056,4.648 c 0.208,-0.379 0.416,-0.754 0.64,-1.124 0.207,-0.357 0.424,-0.706 0.64,-1.055 l 0.024,-0.181 a 8.445,8.445 0 0 0 0.056,-3.255 q -0.4,-3.494 -0.912,-6.973 a 10.7,10.7 0 0 0 -0.56,-2.383 z m 17.676,0.393 v 0 a 37.775,37.775 0 0 0 -15.245,14.442 40.132,40.132 0 0 0 -2.56,5.256 l -0.008,0.013 a 40.476,40.476 0 0 0 -2.767,17.349 0.762,0.762 0 0 1 -0.032,0.27 c 0.152,0.455 0.3,0.91 0.424,1.368 0.248,-0.483 0.52,-0.982 0.832,-1.494 a 75.281,75.281 0 0 1 1.944,-8.494 c 1.912,-6.053 5.366,-11.577 8.814,-16.645 2.776,-4.081 5.727,-8.133 8.6,-12.065 z m -2.487,6.714 v 0 c -2.48,4.48 -5.479,10.3 -6.87,15.781 a 80.22,80.22 0 0 0 -5.879,8.6 158.447,158.447 0 0 1 7.934,-17.045 90.3,90.3 0 0 1 5.759,-9.041 q -0.324,0.585 -0.648,1.165 l -0.3,0.535 z m 2.047,-4 v 0 a 94.713,94.713 0 0 0 -7.294,11.108 174.835,174.835 0 0 0 -8.878,19.373 c -0.056,0.073 -0.1,0.143 -0.16,0.22 -0.664,0.909 -1.3,1.806 -1.872,2.676 a 64.219,64.219 0 0 1 1.7,-7.232 c 1.888,-5.989 5.319,-11.476 8.75,-16.514 2.72,-3.988 5.591,-7.95 8.4,-11.8 a 10.039,10.039 0 0 1 -0.648,2.169 z m -22.819,36.323 v 0 c 0.5,0.427 1.008,0.871 1.487,1.34 -1.415,-6.052 -5.151,-12.043 -10.693,-17.1 -5.087,-4.628 -11.182,-8.15 -17.173,-11.3 5.335,4.866 10.926,10.067 17.044,15.836 1.344,1.271 2.871,2.714 4.247,4.245 a 35.7,35.7 0 0 1 5.087,6.976 z m 18.6,-18.763 v 0 c -3.847,3.6 -6.679,8.215 -9.422,12.68 -0.224,0.367 -0.624,0.929 -1.119,1.606 -1.32,1.828 -4.415,6.108 -3.943,7.669 0.032,0.132 0.12,0.271 0.408,0.382 2.543,0.966 8.118,-3.2 10.5,-4.977 l 1.552,-1.15 c 7.854,-5.747 15.956,-11.69 25.658,-12.046 a 2,2 0 0 0 0.608,-0.072 c 0.16,-0.085 0.256,-0.557 0.152,-1.2 -0.76,-4.537 -5.431,-8.324 -10.646,-8.626 -4.559,-0.279 -9.574,1.827 -13.749,5.731 z m 27.122,14.114 v 0 a 39.827,39.827 0 0 0 -18.772,-2.677 c -3.151,1.917 -6.2,4.146 -9.214,6.352 l -1.544,1.136 a 46.165,46.165 0 0 1 -6.039,4.009 59.287,59.287 0 0 0 10.79,-4.093 c 4.215,-1.9 8.574,-3.857 12.429,-4.549 a 39.077,39.077 0 0 1 7.743,-0.53 31.424,31.424 0 0 1 4.607,0.353 z m 6.958,4.935 v 0 c -0.56,-1.617 -2.519,-2.849 -3.791,-3.5 -0.192,-0.1 -0.392,-0.19 -0.592,-0.285 a 23.039,23.039 0 0 0 -7.19,-1.012 38.278,38.278 0 0 0 -7.654,0.521 c -3.792,0.684 -8.118,2.629 -12.31,4.515 -4.607,2.068 -8.974,4.028 -12.613,4.4 a 11.728,11.728 0 0 1 -1.328,0.451 c 3.623,0.334 7.279,-1.014 10.83,-2.329 l 0.088,-0.033 a 78.929,78.929 0 0 1 17.444,-4.77 32.941,32.941 0 0 1 17.116,2.039 z m -2.9,-5.243 v 0 a 41.866,41.866 0 0 0 -18.947,-4.519 28.29,28.29 0 0 1 11.519,-3.178 3.111,3.111 0 0 0 1.416,-0.3 c 0.992,-0.53 1.416,-1.711 1.16,-3.243 -0.912,-5.491 -6.271,-9.9 -12.453,-10.257 -5.1,-0.314 -10.638,1.986 -15.2,6.255 -0.088,0.079 -0.168,0.166 -0.248,0.245 a 86.575,86.575 0 0 1 5.463,-11.425 l 0.3,-0.53 c 1.487,-2.665 3.167,-5.686 2.655,-8.96 a 1,1 0 0 0 -0.5,-0.708 0.968,0.968 0 0 0 -0.864,-0.032 39.318,39.318 0 0 0 -15,11.976 c -0.024,-0.22 -0.04,-0.437 -0.072,-0.662 -0.264,-2.354 -0.576,-4.7 -0.92,-7.043 a 10,10 0 0 0 -0.968,-3.459 1.574,1.574 0 0 0 -1.52,-0.959 1.673,1.673 0 0 0 -1.1,0.609 18.673,18.673 0 0 0 -3.2,4.9 c -0.224,-0.421 -0.464,-0.84 -0.7,-1.258 a 0.978,0.978 0 0 0 -0.832,-0.5 1.059,1.059 0 0 0 -0.848,0.454 21.6,21.6 0 0 0 -2.855,7.045 c -0.2,-0.32 -0.408,-0.643 -0.616,-0.958 a 84.5,84.5 0 0 0 -7.15,-8.921 1.99,1.99 0 0 0 -1.192,-0.761 1.535,1.535 0 0 0 -1.328,0.442 2.77,2.77 0 0 0 -0.52,2.379 108.74,108.74 0 0 0 5.303,19.783 c -5.639,-4.743 -12.213,-8.311 -18.524,-11.552 -1.192,-0.617 -2.159,-0.612 -2.848,0.007 a 2.34,2.34 0 0 0 -0.688,1.447 c -0.48,3.373 1.552,6.379 3.607,8.873 a 102.38,102.38 0 0 0 12.442,11.96 c -6.662,-1.873 -14.277,-2.531 -23.2,-1.991 -2.623,0.157 -4.191,1.037 -4.655,2.619 -0.616,2.124 1.112,4.015 4.623,5.064 a 76.42,76.42 0 0 1 12.629,5.519 c 2.847,1.453 5.791,2.957 8.814,4.182 a 56.933,56.933 0 0 0 10.214,3.071 21.618,21.618 0 0 0 4.111,0.39 c 3.032,0 6.207,-0.656 7.31,-2.667 a 3.086,3.086 0 0 0 0.3,-0.813 11.06,11.06 0 0 0 5.375,1.258 c 0.448,0 0.912,-0.021 1.376,-0.063 3.823,-0.344 7.39,-1.782 10.846,-3.174 1.488,-0.6 3.031,-1.222 4.551,-1.738 a 41.751,41.751 0 0 1 24.778,-0.536 2.478,2.478 0 0 0 2.592,-0.385 2.132,2.132 0 0 0 0.536,-1.316 c 0.26,-2.474 -1.516,-4.809 -4.971,-6.579 z"
         transform="translate(-134.913,-203.781)"
         fill="#57deed"
         fill-rule="evenodd" />
      <text
         id="text2"
         transform="translate(28.603,99.5)"
         fill="#fff"
         font-size="16px"
         font-family="Roboto-Regular, Roboto"
         letter-spacing="0.2em"
         style="fill:#000000"><tspan
           x="0"
           y="0"
           id="tspan2"
           style="fill:#000000">AESTHETIC</tspan></text>
    </g>
  </g>
</svg>
