<svg xmlns="http://www.w3.org/2000/svg" width="316.515" height="385.695" viewBox="0 0 316.515 385.695">
  <g id="Grupo_12736" data-name="Grupo 12736" transform="translate(-331 -235.082)">
    <g id="Grupo_12723" data-name="Grupo 12723">
      <g id="YamYam_Logo" data-name="YamYam Logo" transform="translate(331 235.082)">
        <path id="Trazado_106" data-name="Trazado 106" d="M136.267,108.765a18.2,18.2,0,0,0,8.074-9.335,9.93,9.93,0,0,1,3.24,4.186l1.156-.193a10.736,10.736,0,0,0-4.081-6.6,11.84,11.84,0,0,0-9.247-1.576v1c3.748-.21,5.8.7,6.866,1.909a16.621,16.621,0,0,1-20.351,10.123l-.263.876A18.863,18.863,0,0,0,136.267,108.765Z" transform="translate(1.237 9.561)" fill="#fff" fill-rule="evenodd"/>
        <path id="Trazado_107" data-name="Trazado 107" d="M142.284,157.649a16.638,16.638,0,0,1-20.351,10.088l-.263.858a18.827,18.827,0,0,0,14.659-.4,18.2,18.2,0,0,0,8.074-9.335,10.035,10.035,0,0,1,3.24,4.168l1.156-.193a10.824,10.824,0,0,0-4.151-6.568,12,12,0,0,0-9.247-1.576V155.7C139.167,155.477,141.216,156.44,142.284,157.649Z" transform="translate(1.244 54.237)" fill="#fff" fill-rule="evenodd"/>
        <path id="Trazado_108" data-name="Trazado 108" d="M164.313,221.661l-12.593-1.226c2.469-12.733,9.86-25.606,22.05-25.606,14.519,0,19.038,13.276,19.038,27.655,0,12.47-.7,26.709-1.646,41.351l-11.507-.946-1.086-4.379a25.045,25.045,0,0,1-12.26,3.7c-10.281,0-16.446-6.585-16.446-16.428,0-12.75,13.556-21.227,27.392-21.507v-3.7c0-4.659-.543-10.824-5.254-10.824-3.7,0-6.708,6.428-7.811,11.91Zm-30.807,42.034c-.4-7.128-.543-14.257-.543-21.017,0-6.305.14-13.153.263-19.266A577.963,577.963,0,0,0,157.6,164.67l-15.885-1.506a414.6,414.6,0,0,1-17.654,44.766c-6.585-14.642-10.281-24.9-12.61-36.78L94.344,169.5c1.366,12.067,9.983,33.82,19.861,54.644v10.508c0,9.72.4,18.617,1.226,27.112ZM74.08,46.52V303.749H331.24V46.59Zm59.408,112.931-18.075-1.909c-.823-8.494-1.226-17.391-1.226-27.112V119.922C104.309,99.1,95.692,77.327,94.326,65.278l17.111,1.646c2.329,11.769,6.025,22.05,12.61,36.78A414.593,414.593,0,0,0,141.719,58.85L157.6,60.356a579.547,579.547,0,0,1-24.38,58.812c-.123,6.165-.263,13.013-.263,19.266,0,6.848.14,14.011.543,21.017Zm32.874-1.506c-10.281,0-16.446-6.568-16.446-16.411,0-12.75,13.573-21.227,27.392-21.507v-3.66c0-4.659-.543-10.824-5.254-10.824-3.713,0-6.708,6.445-7.829,11.91l-12.61-1.243c2.575-12.8,9.9-25.588,22.155-25.588,14.519,0,19.038,13.276,19.038,27.655,0,12.47-.7,26.709-1.646,41.351l-11.524-.946-1.068-4.4a24.817,24.817,0,0,1-12.26,3.7Zm133.107,106a10.4,10.4,0,1,1,11.559-9.107A10.4,10.4,0,0,1,299.469,263.94Zm-90.9-2.189c-.963-12.26-1.506-24.782-1.506-37.112,0-9.177.28-18.617.823-27.795l11.367.823c.946,4.379,1.629,9.037,2.329,13.416,4.379-6.848,9.037-11.367,14.379-11.367a15.1,15.1,0,0,1,12.733,5.762c3.976-5.762,8.757-10.508,14.011-10.508,16.165,0,19.038,15.342,19.038,28.618a335.48,335.48,0,0,1-2.732,39.179L263.127,261.4a395.45,395.45,0,0,0,2.592-39.862c0-5.745-.823-12.593-4.379-12.593-2.329,0-6.848,9.177-7.934,19.861-.14,9.177-.42,19.581-1.1,30.527l-16.025-1.506c.683-12.05,1.1-21.77,1.1-31.525,0-5.745-.683-12.733-3.5-12.733s-8.634,12.26-10.684,23.556c.14,8.494.543,17.111,1.226,26.008l-16.008-1.506Zm91.073-65.012a274.967,274.967,0,0,1,7.006-36.552l19.371,6.27c-7.951,20.544-13.066,43.785-17.514,69.2L297.84,233.01a298.4,298.4,0,0,1,1.751-36.184Zm-75.083-37.655-16.008-1.506c-.963-12.26-1.506-24.782-1.506-37.112,0-9.177.28-18.617.823-27.795l11.367.823c.946,4.379,1.629,9.037,2.329,13.416,4.379-6.848,9.037-11.367,14.379-11.367a15.1,15.1,0,0,1,12.733,5.762c3.976-5.762,8.757-10.508,14.011-10.508,16.166,0,19.038,15.342,19.038,28.636A335.685,335.685,0,0,1,279,158.593l-15.885-1.366a395.454,395.454,0,0,0,2.68-39.81c0-5.745-.823-12.593-4.378-12.593-2.329,0-6.848,9.177-7.934,19.861-.14,9.177-.42,19.581-1.1,30.527l-16.025-1.506c.683-12.05,1.1-21.77,1.1-31.525,0-5.762-.683-12.733-3.5-12.733s-8.634,12.26-10.684,23.539C223.475,141.551,223.878,150.186,224.561,159.083Z" transform="translate(-34.515 -26.799)" fill="#f4ca14" fill-rule="evenodd"/>
        <path id="Trazado_109" data-name="Trazado 109" d="M76.569,241.754A17.374,17.374,0,0,0,72.961,253.3c.368,9.02,4.466,14.362,12.733,14.362h5.64a11.437,11.437,0,0,1,4.2.438c.49.263.771,1.191.771,2.7s-1.138,1.944-5.675,1.944c-8.529,0-14.572-1.454-18.127-4.431s-5.254-7.934-5.254-14.939a27.83,27.83,0,0,1,1.892-10.508,16.814,16.814,0,0,1,16.183-10.684h1.086c13.153.6,18.67,7.549,18.67,20.124a19.844,19.844,0,0,1-.928,5.99c-1.243,3.731-4.151,6.848-8.092,6.848a7.373,7.373,0,0,1-7.006-4.1,10.51,10.51,0,0,1-4.641,1.244,12.628,12.628,0,0,1-4.046-.6,6.34,6.34,0,0,1-3.608-3.17,10.736,10.736,0,0,1-1.191-4.921,8.582,8.582,0,0,1,3.082-6.9A11.139,11.139,0,0,1,86.1,244.1a39.361,39.361,0,0,1,4.957.543h0c.42,0,0-1.243,1.611-1.243s3.188.6,3.188,1.243v.105c-.158,1.244-.438,2.54-.753,3.941s-.7,3.012-1.191,4.8l-.981,3.783a5.783,5.783,0,0,0-.105,1.121c0,1.751.806,2.645,2.434,2.645,1.944,0,3.5-2.469,4.484-7.5a2.136,2.136,0,0,0,.105-.368,10.265,10.265,0,0,0,.158-1.751,14.011,14.011,0,0,0-3.888-10.036,12.47,12.47,0,0,0-9.44-4.151,12.26,12.26,0,0,0-9.983,4.361Zm13.118,12.137h0a26.918,26.918,0,0,0,.6-3.24c.158-1.4.315-2.259.368-2.575-1.892-.175-3.135-.228-3.66-.228a7.776,7.776,0,0,0-4.746,1.576,4.466,4.466,0,0,0-2.119,3.713c0,2.75,1.524,4.1,4.536,4.1a4.834,4.834,0,0,0,4.046-1.349,5.255,5.255,0,0,0,.981-2Z" transform="translate(-39.649 112.697)" fill="#231f20" fill-rule="evenodd"/>
        <path id="Trazado_110" data-name="Trazado 110" d="M101.569,269.169a3.5,3.5,0,0,1-3.4,3.03c-1.086,0-1.751-.823-2.049-2.54a35.3,35.3,0,0,1-.28-5.254v-6.8c0-2.049,0-3.731.105-5.027l-2-3.5a38.532,38.532,0,0,1-2.7-7.829,18.18,18.18,0,0,1-.473-4.1c0-2.54.648-3.783,1.927-3.783,1.751,0,3.082,2,3.888,6.042a56.747,56.747,0,0,0,1.524,5.727c.578,1.751,1.068,2.7,1.454,2.7s1.892-3.24,4.1-9.7c.911-2.767,2.7-5.254,4.046-5.254s2.049.911,2.049,2.8a19.107,19.107,0,0,1-1.839,7.111,60.456,60.456,0,0,1-5.657,10.859c0,2-.105,2.469-.105,3.941v5.5a23.907,23.907,0,0,1-.6,6.077Z" transform="translate(-21.967 113.234)" fill="#231f20" fill-rule="evenodd"/>
        <path id="Trazado_111" data-name="Trazado 111" d="M119.1,272.467c-1.751,0-2.96-1.191-3.345-3.5a13.838,13.838,0,0,0-.438-2.259l-.473-2.592a1.1,1.1,0,0,0-.981-.928h0c-.7,0-1.349.105-1.839.105h-2.469a7.466,7.466,0,0,0-1.243,0c-.6.123-.981.6-1.033,1.471a17.516,17.516,0,0,1-.858,5.114,3.153,3.153,0,0,1-3.135,2.54c-1.944,0-2.592-.753-2.592-2.259a9.74,9.74,0,0,1,.175-1.751,228.137,228.137,0,0,1,8.039-31.893,14.258,14.258,0,0,1,1.454-3.293,3.24,3.24,0,0,1,2.259-1.068,2.732,2.732,0,0,1,2.592,2.154,15.376,15.376,0,0,1,1.086,3.661c.525,2.872,1.349,7.671,2.469,14.361s2,11.7,2.7,15.1a17.32,17.32,0,0,1,.438,2.767c0,1.121-1.751,2.364-2.75,2.364Zm-4.9-15.763h0v-.175c-.7-5.99-1.4-10.841-2.172-14.554,0-.28-.158-.438-.315-.438h0c-.333,0-.28.21-.28.438-1.751,7.706-2.8,12.785-3.17,15.1v.158c0,.385.158.543.42.543a29.56,29.56,0,0,0,5.027-.368.631.631,0,0,0,.49-.63Z" transform="translate(-14.52 112.685)" fill="#231f20" fill-rule="evenodd"/>
        <path id="Trazado_112" data-name="Trazado 112" d="M145.525,266.472v2.855h0c0,2.207-1.033,3.345-3.03,3.345-2.417,0-2.855-2.049-2.855-6.638v-5.71c0-1.138,0-3.293.21-6.533s.228-5.254.228-5.99V247.7a.245.245,0,0,0-.175-.28H139.8c-.158,0-.21.105-.263.333l-.333,2.364c-.42,2.207-1.173,5.254-2.259,9.177a85.2,85.2,0,0,1-2.592,8.582c-.42,1.121-1.751,2.645-2.645,2.645a2.785,2.785,0,0,1-1.559-.385c-.806-.6-.753-.753-1.454-2.1a100.955,100.955,0,0,1-7.391-19.423c-.175-.753-.333-1.138-.438-1.138s-.333.49-.333,1.454v.823c0,.648-.123,2.207-.123,2.8v12.19a18.759,18.759,0,0,1-.473,5.254,2.68,2.68,0,0,1-2.8,2.259c-1.629-.105-2.434-2.154-2.434-6.095h0c0-1.839,0-4.361-.105-7.6s-.105-5.727-.105-7.391a75.1,75.1,0,0,1,1.121-13.223c.648-3.5,1.751-5.254,3.135-5.254s3.082,1.944,4.378,5.254c.631,1.611,1.173,3.135,1.611,4.484s.963,2.907,1.454,4.746.806,2.907.911,3.17a69.82,69.82,0,0,0,3.293,9.072c.175.263.28.385.385.385s.315-.175.385-.438l1.751-8.039c.981-4.151,1.751-7.233,2.049-9.23A27.156,27.156,0,0,1,136.1,238.2a12.874,12.874,0,0,1,2.207-3.766A4.081,4.081,0,0,1,141.5,232.6a4.554,4.554,0,0,1,3.03,2.907,40.7,40.7,0,0,1,.911,9.93c0,2.154,0,5.254-.105,9.125s0,6.9,0,9.107A18.009,18.009,0,0,1,145.525,266.472Z" transform="translate(-4.151 113.023)" fill="#231f20" fill-rule="evenodd"/>
        <path id="Trazado_113" data-name="Trazado 113" d="M145.2,269.169a3.5,3.5,0,0,1-3.415,3.03c-1.068,0-1.751-.823-2.049-2.54a38.166,38.166,0,0,1-.263-5.254v-6.8c0-2.049,0-3.731.105-5.027l-2-3.5a38.529,38.529,0,0,1-2.7-7.829,18.2,18.2,0,0,1-.49-4.1c0-2.54.648-3.783,1.944-3.783,1.751,0,3.082,2,3.888,6.042.438,2,.928,3.941,1.506,5.727s1.086,2.7,1.471,2.7,1.874-3.24,4.1-9.7c.911-2.767,2.7-5.254,4.046-5.254s2.049.911,2.049,2.8a19.107,19.107,0,0,1-1.839,7.111,60.459,60.459,0,0,1-5.657,10.859c0,2-.123,2.469-.123,3.941v5.5a23.907,23.907,0,0,1-.578,6.077Z" transform="translate(10.802 113.234)" fill="#231f20" fill-rule="evenodd"/>
        <path id="Trazado_114" data-name="Trazado 114" d="M144.84,268.582c0-.28.105-1.4.315-3.5,1.892-14.2,4.694-24.66,8.3-31.4a1.909,1.909,0,0,1,1.751-1.086c1.454,0,3.188,2.8,5.132,8.477a140.116,140.116,0,0,1,4.8,17.426,76.034,76.034,0,0,1,1.892,11.875c0,1.121-1.244,1.874-2.7,1.874a2.785,2.785,0,0,1-2.592-1.751,10.368,10.368,0,0,1-.981-4.1c-.158-3.03-.648-5.99-1.944-5.99H158.5c-.158,0-.963.105-2.382.21-2.8.158-4.694.648-4.746,1.751,0,.28-.105,1.944-.158,2.592a19.5,19.5,0,0,1-.263,2.925c-.333,2.259-1.244,4.466-3.135,4.414s-2.96-1.244-2.96-3.66Zm8.564-20.456h0a54.978,54.978,0,0,0-1.068,7.006.1.1,0,0,0-.105.105c0,.368.263.543.806.543h0l1.664-.175c2.172-.21,3.836-.578,3.836-1.226a38.054,38.054,0,0,0-1.506-6.428c-1.033-3.608-1.751-5.394-2-5.394S154.1,244.412,153.4,248.125Z" transform="translate(18.654 113.016)" fill="#231f20" fill-rule="evenodd"/>
        <path id="Trazado_115" data-name="Trazado 115" d="M165.625,247.344c-.158,0-.263.263-.263.648v.7c0,1.349.158,3.188.158,4.256s.105,3.836.105,6.375v6.41c0,4.536-.648,6.533-3.293,6.533a2.363,2.363,0,0,1-.648,0c-1.226-.21-1.874-2.364-1.874-6.428,0-2.8,0-6.8.158-11.91s.158-9.125.158-11.874c0-5.885.753-9.072,2.329-9.615a1.018,1.018,0,0,1,.42,0,2.766,2.766,0,0,1,1.524.49,6.217,6.217,0,0,1,1.751,1.751,12.035,12.035,0,0,1,1.4,2.469c.28.6.858,2.224,1.033,2.7l.473,1.3.385,1.138c.263.911.753,3.082.911,3.5,0,.123.228.928.6,2.487s.753,2.977,1.138,4.326.6,2,.7,2a54.944,54.944,0,0,0,3.73-8.319q3.5-8.319,4.2-10.351a6.532,6.532,0,0,1,1.086-1.629,7.3,7.3,0,0,1,1.506-1.4,2.014,2.014,0,0,1,1.138-.315c2,0,3.065,2.522,3.345,7.549.105,2.592.158,4.641.158,6.2v2.487c0,1.751,0,4.589.158,8.354s.21,6.533.21,8.424v1.839c0,2.8-.263,4.466-2.522,4.694-2,0-3.188-.7-3.5-2.049a37.443,37.443,0,0,1-1.016-9.93h0v-9.563a14.169,14.169,0,0,0-.105-1.751.28.28,0,0,0-.28-.28,73.915,73.915,0,0,0-3.5,10.263c-2.154,6.8-3.5,10.246-4.2,10.4h-.228a1.261,1.261,0,0,1-.753-.21,9.09,9.09,0,0,1-2.364-3.888,45.2,45.2,0,0,1-1.629-5.5l-1.138-6.533-.806-4.851c-.105-.543-.263-.806-.543-.806Z" transform="translate(29.903 112.886)" fill="#231f20" fill-rule="evenodd"/>
        <path id="Trazado_116" data-name="Trazado 116" d="M179.12,253.413c.158-1.891,1.191-3.012,2.855-3.012a5.257,5.257,0,0,1,1.086.105,4.116,4.116,0,0,1,2.855,4.151,3.293,3.293,0,0,1-3.5,3.5c-1.892,0-3.293-2.417-3.293-4.589Z" transform="translate(44.413 126.398)" fill="#231f20" fill-rule="evenodd"/>
        <path id="Trazado_117" data-name="Trazado 117" d="M212.722,265.2v1.751c0,3.082-.543,4.9-2.7,4.957h-.158c-1.892,0-2.872-1.874-2.872-5.657v-2.8c-.21-4.974-.263-10.631-.525-15.43v-.981c0-.263-.175-1.349-.175-1.506s-.105-.385-.315-.385-.438.6-.6,1.751a18.365,18.365,0,0,1-.6,2.592c-.263,1.121-1.086,3.4-1.751,6.042l-1.016,3.24c-.49,1.611-.928,3.065-1.244,4.414-.543,2.329-1.349,3.5-2.487,3.5a.788.788,0,0,1-.42,0c-.438-.105-.876-.7-1.244-1.751-.175-.438-.648-2.277-1.524-5.517s-1.611-6.305-2.417-9.107-1.3-4.273-1.576-4.273h0a.4.4,0,0,0-.263.438l-.158,2.487v2.487c0,.543,0,6.147-.228,16.446a7.987,7.987,0,0,1-.473,2.592c-.28.858-.771,1.3-1.349,1.3-2,0-2.82-.858-2.82-2.96v-.876c.175-2.049.228-6.533.28-13.381a138.35,138.35,0,0,1,.7-14.887c.158-1.349.49-3.03.858-5.027a2.8,2.8,0,0,1,2.382-2.522,2.837,2.837,0,0,1,3.065,1.751,4.149,4.149,0,0,1,.438,1.033c.158.42.6,2.154.753,2.75.49,1.611.911,3.345,1.3,5.254s.858,3.941,1.349,6.358l1.033,5.079c.368.963.7,1.454.911,1.454s.648-.806,1.3-2.487a52.9,52.9,0,0,0,2.259-7.6c.175-.806.438-1.751.7-2.7s.7-2.382,1.3-4.046a14.1,14.1,0,0,1,2.172-4.168,3.678,3.678,0,0,1,2.75-1.664,3.363,3.363,0,0,1,3.5,3.783c0,3.4,0,7.549,0,12.4v14.256Z" transform="translate(49.447 112.648)" fill="#231f20" fill-rule="evenodd"/>
        <path id="Trazado_118" data-name="Trazado 118" d="M205.092,240.516a9.686,9.686,0,0,1-1.138-4.974c0-1.454.49-2.312,1.506-2.645h.158c1.191,0,2.434,1.138,3.678,3.345.438.823,1.243,2.382,2.364,4.816a57.345,57.345,0,0,0,2.767,5.114l.368.6.333-.49a39.65,39.65,0,0,0,1.751-4.466,31.1,31.1,0,0,1,3.135-6.533,5.044,5.044,0,0,1,4.151-2.75c1.191,0,1.751.648,1.751,2a12.96,12.96,0,0,1-.7,3.713,26,26,0,0,1-1.191,3.293c-.6,1.138-1.454,2.977-2.7,5.57a64.53,64.53,0,0,1-2.977,5.92h0l-.315.315a.683.683,0,0,1,.21.385l.753,2,.718,1.611c.105.263.648,1.243,1.559,3.03a21.981,21.981,0,0,1,3.293,9,3.766,3.766,0,0,1-.28,1.4c-.525.543-.105.806-1.454.806a3.888,3.888,0,0,1-3.117-1.751,22.594,22.594,0,0,1-2.487-4.694c-.753-1.944-1.243-3.082-1.4-3.345s-1.751-3.941-1.751-3.941a32.161,32.161,0,0,0-2.259,5.342,46.8,46.8,0,0,1-2.049,5.167c-1.138,2.119-2.277,3.135-3.4,3.135h-.123c-1.121,0-1.751-.806-1.751-2.259a15.763,15.763,0,0,1,1.559-6.147c1.033-2.329,2.1-4.379,3.135-6.27a10.509,10.509,0,0,0,1.559-3.993C210.854,251.515,208.91,247.364,205.092,240.516Z" transform="translate(63.067 112.971)" fill="#231f20" fill-rule="evenodd"/>
        <path id="Trazado_119" data-name="Trazado 119" d="M71.263,55.051H51.49V351.81H348.214V332H368V35.26H71.263ZM348.214,312.21H91.054V55.051h257.16Z" transform="translate(-51.49 -35.26)" fill="#231f20" fill-rule="evenodd"/>
        <path id="Trazado_120" data-name="Trazado 120" d="M105.536,125.145c0,9.72.4,18.617,1.226,27.112l18.04,1.874c-.4-7.111-.543-14.221-.543-21.017,0-6.305.14-13.153.263-19.265A579.559,579.559,0,0,0,148.9,55.106L133.016,53.6a414.594,414.594,0,0,1-17.654,44.766c-6.585-14.642-10.281-24.923-12.61-36.78L85.64,59.94c1.366,12.05,9.983,33.82,19.861,54.644Z" transform="translate(-25.829 -21.479)" fill="#231f20" fill-rule="evenodd"/>
        <path id="Trazado_121" data-name="Trazado 121" d="M167.447,140.035c-.683-8.9-1.086-17.514-1.226-26.026C168.27,102.66,174.032,90.47,176.9,90.47s3.5,7.006,3.5,12.733c0,9.72-.42,19.441-1.1,31.525l16.025,1.506c.683-10.946.963-21.35,1.1-30.527,1.086-10.684,5.6-19.861,7.934-19.861,3.5,0,4.379,6.848,4.379,12.593a395.467,395.467,0,0,1-2.592,39.862l15.885,1.366a335.677,335.677,0,0,0,2.732-39.162c0-13.293-2.872-28.636-19.038-28.636-5.254,0-10.123,4.659-14.011,10.508a15.1,15.1,0,0,0-12.733-5.762c-5.342,0-10,4.519-14.379,11.367-.7-4.379-1.384-9.037-2.329-13.416l-11.367-.823c-.543,9.177-.823,18.617-.823,27.795,0,12.26.543,24.8,1.506,37.112Z" transform="translate(22.599 -7.751)" fill="#231f20" fill-rule="evenodd"/>
        <path id="Trazado_122" data-name="Trazado 122" d="M105.521,184.673c0,9.72.4,18.617,1.226,27.112l18.075,1.926c-.4-7.128-.543-14.256-.543-21.017,0-6.305.14-13.153.263-19.266a577.975,577.975,0,0,0,24.38-58.742l-15.885-1.506a414.578,414.578,0,0,1-17.654,44.766c-6.585-14.642-10.281-24.905-12.61-36.78L85.66,119.52c1.366,12.067,9.983,33.82,19.861,54.644Z" transform="translate(-25.814 23.29)" fill="#231f20" fill-rule="evenodd"/>
        <path id="Trazado_123" data-name="Trazado 123" d="M167.514,199.535c-.683-8.9-1.086-17.514-1.226-26.008,2.049-11.367,7.811-23.556,10.684-23.556s3.5,7.006,3.5,12.733c0,9.72-.42,19.441-1.1,31.525l16.025,1.506c.683-10.946.963-21.35,1.1-30.527,1.086-10.684,5.6-19.861,7.934-19.861,3.5,0,4.379,6.848,4.379,12.593A395.454,395.454,0,0,1,206.22,197.8l15.885,1.366a335.468,335.468,0,0,0,2.732-39.179c0-13.276-2.872-28.618-19.038-28.618-5.254,0-10.123,4.659-14.011,10.508a15.1,15.1,0,0,0-12.89-5.9c-5.342,0-10,4.519-14.379,11.367-.7-4.379-1.384-9.037-2.329-13.416l-11.367-.823c-.543,9.177-.823,18.617-.823,27.795,0,12.26.543,24.782,1.506,37.112Z" transform="translate(22.532 36.958)" fill="#231f20" fill-rule="evenodd"/>
        <path id="Trazado_124" data-name="Trazado 124" d="M230.015,117.653l-19.388-6.182a274.969,274.969,0,0,0-7.006,36.552,298.4,298.4,0,0,0-1.751,36.184l10.7,2.644C216.95,161.438,222.064,138.144,230.015,117.653Z" transform="translate(61.49 22.005)" fill="#231f20" fill-rule="evenodd"/>
        <path id="Trazado_125" data-name="Trazado 125" d="M206.7,179.576a10.4,10.4,0,1,0-9.107-11.559A10.4,10.4,0,0,0,206.7,179.576Z" transform="translate(58.237 57.6)" fill="#231f20" fill-rule="evenodd"/>
        <path id="Trazado_126" data-name="Trazado 126" d="M131.739,98.512c1.121-5.464,4.116-11.91,7.829-11.91,4.641,0,5.254,6.165,5.254,10.824v3.7c-13.819.28-27.392,8.757-27.392,21.507,0,9.843,6.165,16.411,16.446,16.411a24.817,24.817,0,0,0,12.26-3.7l1.068,4.4,11.524.946c.946-14.642,1.646-28.881,1.646-41.351,0-14.379-4.519-27.655-19.038-27.655-12.26,0-19.581,12.855-22.068,25.588l12.61,1.243Zm20.246,22.33h0l-1.156.193a9.93,9.93,0,0,0-3.24-4.186,18.2,18.2,0,0,1-8.074,9.335,18.863,18.863,0,0,1-14.659.42l.263-.876a16.621,16.621,0,0,0,20.351-10.123c-1.068-1.208-3.117-2.119-6.866-1.909v-1a11.84,11.84,0,0,1,9.247,1.576,10.736,10.736,0,0,1,4.133,6.6Z" transform="translate(-1.942 -7.894)" fill="#231f20" fill-rule="evenodd"/>
        <path id="Trazado_127" data-name="Trazado 127" d="M141.2,131.208c-12.26,0-19.581,12.873-22.05,25.606l12.593,1.226c1.1-5.482,4.116-11.91,7.811-11.91,4.659,0,5.254,6.165,5.254,10.824v3.678c-13.836.28-27.392,8.757-27.392,21.507,0,9.843,6.165,16.428,16.446,16.428a25.045,25.045,0,0,0,12.26-3.7l1.086,4.378,11.507.946c.946-14.642,1.646-28.881,1.646-41.351,0-14.379-4.519-27.655-19.038-27.655Zm9.633,49.267h0a10.036,10.036,0,0,0-3.24-4.168,18.2,18.2,0,0,1-8.074,9.335,18.828,18.828,0,0,1-14.659.4l.263-.858a16.638,16.638,0,0,0,20.351-10.123c-1.068-1.209-3.118-2.119-6.866-1.909v-1.016a12,12,0,0,1,9.247,1.576,10.824,10.824,0,0,1,4.151,6.568Z" transform="translate(-1.949 36.823)" fill="#231f20" fill-rule="evenodd"/>
      </g>
    </g>
  </g>
</svg>
