<svg xmlns="http://www.w3.org/2000/svg" width="211.042" height="149.099" viewBox="0 0 211.042 149.099">
  <g id="Grupo_10539" data-name="Grupo 10539" transform="translate(-282.221 -245.442)">
    <g id="Grupo_10419" data-name="Grupo 10419" transform="translate(283.721 246.949)">
      <g id="Grupo_10414" data-name="Grupo 10414" transform="translate(137.756 75.808)">
        <g id="Grupo_10413" data-name="Grupo 10413">
          <g id="Grupo_10411" data-name="Grupo 10411">
            <path id="Trazado_14655" data-name="Trazado 14655" d="M172.03,330.038h57.218a6.531,6.531,0,0,0,6.533-6.53V274.725H165.495v48.784A6.533,6.533,0,0,0,172.03,330.038Z" transform="translate(-165.495 -259.755)" fill="#fff" stroke="#000" stroke-linecap="round" stroke-linejoin="round" stroke-width="3"/>
            <path id="Trazado_14656" data-name="Trazado 14656" d="M235.781,261.835a6.532,6.532,0,0,0-6.533-6.532H172.03a6.533,6.533,0,0,0-6.535,6.532v8.438h70.286Z" transform="translate(-165.495 -255.303)" fill="#fafafa" stroke="#000" stroke-linecap="round" stroke-linejoin="round" stroke-width="3"/>
          </g>
          <g id="Grupo_10412" data-name="Grupo 10412" transform="translate(40.315 5.583)">
            <path id="Trazado_14657" data-name="Trazado 14657" d="M223.558,265.423a2.879,2.879,0,1,1-2.878-2.876A2.88,2.88,0,0,1,223.558,265.423Z" transform="translate(-217.8 -262.547)"/>
            <path id="Trazado_14658" data-name="Trazado 14658" d="M246.83,265.423a2.878,2.878,0,1,1-2.879-2.876A2.879,2.879,0,0,1,246.83,265.423Z" transform="translate(-223.135 -262.547)"/>
            <path id="Trazado_14659" data-name="Trazado 14659" d="M235.195,265.423a2.879,2.879,0,1,1-2.878-2.876A2.879,2.879,0,0,1,235.195,265.423Z" transform="translate(-220.468 -262.547)"/>
          </g>
        </g>
        <rect id="Rectángulo_135" data-name="Rectángulo 135" width="46.281" height="33.454" transform="translate(12.008 30.015)" fill="#616567"/>
      </g>
      <g id="Grupo_10417" data-name="Grupo 10417" transform="translate(0)">
        <g id="Grupo_10416" data-name="Grupo 10416" transform="translate(0)">
          <path id="Trazado_14660" data-name="Trazado 14660" d="M152.682,193.8c7.66,4.592,21.068,15.231,21.575,15.619,9.471,7.247,6.286,16.175,6.286,16.175-3.807,11.837-9.547,26.355-9.616,26.389-3.663,1.817-7.61-5.345-7.755-12.61-.06-2.993,2.143-9.141,3.666-13.71a3.012,3.012,0,0,0-1.315-3.529l-15.412-10.4s-1.849,29-5.219,32.825c-11.438,12.972-12.676-.943-12.676-.943l-6.487-7.125c-8.936.041-16.091,0-23.327,0-17.77,0-20.092-9.5-20.092-9.5H53.134l-.1-37.733H133S143.978,188.58,152.682,193.8Z" transform="translate(-1.959 -164.348)" fill="#fff" stroke="#000" stroke-linecap="round" stroke-linejoin="round" stroke-width="3"/>
          <path id="Trazado_14661" data-name="Trazado 14661" d="M157.01,260.293l-6.805,4.253s-6.193,3.965-10.585-2.741c-2.635-4.025-8.854-14.322-8.854-14.322s-4.308-6.264,1.182-9.7c5.59-3.5,10.256,3.556,10.256,3.556Z" transform="translate(-19.41 -175.256)" fill="#fff" stroke="#000" stroke-linecap="round" stroke-linejoin="round" stroke-width="3"/>
          <path id="Trazado_14662" data-name="Trazado 14662" d="M175.443,229.027s5.9,9.435,4.985,13.772c-1.714,8.163-9.9,13.823-9.9,13.823s-5.985,10.25-14.165,2.56c-3.632-3.414-8.7-9.556-8.7-9.556s-3.072-2.9-1.364-6.315c4.334-8.67,16.553,1.366,16.553,1.366Z" transform="translate(-23.22 -173.472)" fill="#fff" stroke="#000" stroke-linecap="round" stroke-linejoin="round" stroke-width="3"/>
          <g id="Grupo_10415" data-name="Grupo 10415" transform="translate(116.917)">
            <path id="Trazado_14663" data-name="Trazado 14663" d="M193.055,260.924a.962.962,0,0,1-.95-.039l-2.485-1.547a4.04,4.04,0,0,1-1.454-1.579l-49.678-96.531a1.959,1.959,0,0,1,.458-1.431l5.305-2.73a1.062,1.062,0,0,1,1.43.459l49.679,96.53a4.045,4.045,0,0,1,.439,2.1l-.185,2.92a.965.965,0,0,1-.52.8Z" transform="translate(-138.459 -156.949)" fill="#ddd" stroke="#000" stroke-linecap="round" stroke-linejoin="round" stroke-width="3"/>
          </g>
          <path id="Trazado_14664" data-name="Trazado 14664" d="M121.676,220.285l.167-.008,15.92.118s14.1,15.615,20.076,22.532c3.864,4.474,8.747,7.768,13.062,5.771,6.368-2.947,3.892-7.429,3.892-7.429L158.37,214.507c-5.032-7.251-26.666-25.194-42.178-25.194" transform="translate(-16.438 -164.368)" fill="#fff" stroke="#000" stroke-linecap="round" stroke-linejoin="round" stroke-width="3"/>
          <path id="Trazado_14665" data-name="Trazado 14665" d="M52.606,233a1.317,1.317,0,0,0,1.32,1.316l20.768-.066a1.318,1.318,0,0,0,1.316-1.323l-.14-46.11a1.323,1.323,0,0,0-1.324-1.316l-20.767.063a1.321,1.321,0,0,0-1.316,1.324Z" transform="translate(-1.829 -163.493)" fill="#edbc2e" stroke="#000" stroke-linecap="round" stroke-linejoin="round" stroke-width="3"/>
          <path id="Trazado_14666" data-name="Trazado 14666" d="M-13.053,241.432l55.185-.123a1.312,1.312,0,0,0,1.311-1.32l-.166-54.942a1.319,1.319,0,0,0-1.322-1.315l-55.185.123Z" transform="translate(13.23 -163.089)" fill="#fafafa" stroke="#000" stroke-linecap="round" stroke-linejoin="round" stroke-width="3"/>
          <path id="Trazado_14667" data-name="Trazado 14667" d="M46.476,246.954a3.517,3.517,0,1,1-3.531-3.505A3.517,3.517,0,0,1,46.476,246.954Z" transform="translate(1.156 -176.778)" fill="#fff" stroke="#000" stroke-linecap="round" stroke-linejoin="round" stroke-width="3"/>
          <path id="Trazado_14668" data-name="Trazado 14668" d="M32.717,246.954a3.517,3.517,0,1,1-3.53-3.505A3.517,3.517,0,0,1,32.717,246.954Z" transform="translate(4.31 -176.778)" fill="#fff" stroke="#000" stroke-linecap="round" stroke-linejoin="round" stroke-width="3"/>
          <path id="Trazado_14669" data-name="Trazado 14669" d="M18.957,246.954a3.517,3.517,0,1,1-3.528-3.505A3.516,3.516,0,0,1,18.957,246.954Z" transform="translate(7.464 -176.778)" fill="#fff" stroke="#000" stroke-linecap="round" stroke-linejoin="round" stroke-width="3"/>
        </g>
        <line id="Línea_13" data-name="Línea 13" x2="1.651" y2="3.42" transform="translate(172.389 103.671)" fill="#fff" stroke="#000" stroke-linecap="round" stroke-linejoin="round" stroke-width="3"/>
      </g>
    </g>
  </g>
</svg>
