<svg xmlns="http://www.w3.org/2000/svg" width="108.097" height="156.199" viewBox="0 0 108.097 156.199">
  <g id="Grupo_10538" data-name="Grupo 10538" transform="translate(-534.801 -216.564)">
    <rect id="Rectángulo_154" data-name="Rectángulo 154" width="62.766" height="106.971" transform="translate(578.164 264.292)" fill="#fff" stroke="#fff" stroke-linecap="round" stroke-linejoin="round" stroke-width="3"/>
    <path id="Trazado_14792" data-name="Trazado 14792" d="M571.066,295.967v39.16h6.953v-33.41Z" transform="translate(16.127 36.137)" fill="#d9a100"/>
    <path id="Trazado_14793" data-name="Trazado 14793" d="M582.254,290.176v47.637H592.5l.091-36.521Z" transform="translate(21.316 33.45)" fill="#d9a100"/>
    <path id="Trazado_14794" data-name="Trazado 14794" d="M597.785,288.02v50.794h14.624V294.241Z" transform="translate(28.521 32.45)" fill="#d9a100"/>
    <path id="Trazado_14795" data-name="Trazado 14795" d="M596.769,263.865V225.948a7.878,7.878,0,0,0-7.878-7.884h-44.7a7.884,7.884,0,0,0-7.887,7.884v97.536a7.886,7.886,0,0,0,7.887,7.887h33.981" fill="none" stroke="#fff" stroke-linecap="round" stroke-linejoin="round" stroke-width="3"/>
    <path id="Trazado_14796" data-name="Trazado 14796" d="M536.3,303.969h41.862l0-44.109,18.606-.425V227.62H536.3Z" transform="translate(0.001 4.433)" fill="#616567" stroke="#fff" stroke-linejoin="round" stroke-width="3"/>
    <path id="Trazado_14797" data-name="Trazado 14797" d="M558.27,292.792a4.127,4.127,0,1,1,4.127-4.128A4.128,4.128,0,0,1,558.27,292.792Z" transform="translate(8.272 30.835)" fill="#fff"/>
    <path id="Trazado_14798" data-name="Trazado 14798" d="M564.9,305.4l9.029-5.75,6.953,5.75,9.515-14.227,10.247,11.116,12.443-14.273,14.579,6.221" transform="translate(13.265 32.45)" fill="none" stroke="#000" stroke-linecap="round" stroke-linejoin="round" stroke-width="3"/>
    <g id="Grupo_11473" data-name="Grupo 11473" transform="translate(585.426 272.178)">
      <rect id="Rectángulo_155" data-name="Rectángulo 155" width="6.83" height="6.83"/>
      <rect id="Rectángulo_156" data-name="Rectángulo 156" width="6.83" height="6.83" transform="translate(9.758)"/>
      <rect id="Rectángulo_157" data-name="Rectángulo 157" width="6.83" height="6.831" transform="translate(0 9.289)"/>
      <rect id="Rectángulo_158" data-name="Rectángulo 158" width="6.83" height="6.831" transform="translate(9.758 9.289)"/>
    </g>
  </g>
</svg>
