<svg xmlns="http://www.w3.org/2000/svg" width="153.429" height="122.077" viewBox="0 0 153.429 122.077">
  <g id="Grupo_11530" data-name="Grupo 11530" transform="translate(795.215 -3305.267)">
    <g id="Grupo_10540" data-name="Grupo 10540" transform="translate(-750.921 3277.167)">
      <path id="Trazado_14626" data-name="Trazado 14626" d="M645.16,318.088l-3.845-.8v0Z" transform="translate(-536.024 -272.873)" fill="#bbe1f4"/>
    </g>
    <path id="Trazado_16687" data-name="Trazado 16687" d="M414.163-121.974a8.356,8.356,0,0,1,4.449,8.9c-.184,1.229-.34,2.461-.521,3.778.4.018.729.044,1.056.045,2.472,0,4.945-.031,7.416.014,2.761.05,4.566,1.945,4.246,4.461a11.073,11.073,0,0,1-.689,2.048,4.026,4.026,0,0,1,1.071,3.274,4.044,4.044,0,0,1-1.426,2.579.961.961,0,0,0-.312.722c.392,2.388-.1,3.525-2.124,4.814a13.563,13.563,0,0,1-.15,1.908,3.728,3.728,0,0,1-3.655,3.011c-4.7.025-9.4.073-14.1-.057a10.914,10.914,0,0,1-3.312-1.121,7.292,7.292,0,0,1-1.123-.714c-.029.589-.705,2.965-1.689,2.971q-4.3.026-8.606,0A1.457,1.457,0,0,1,393.073-87q-.023-8.565-.012-17.13a1.654,1.654,0,0,1,1.866-1.868q4.074-.026,8.148.008c1.235.01,1.528.336,2.039,2.209a14.024,14.024,0,0,0,1.206-1.581c1.36-2.452,2.637-4.95,4.029-7.383a5.492,5.492,0,0,0,.656-3.516c-.133-1.151-.135-2.321-.319-3.462a1.552,1.552,0,0,1,1.2-1.988,2.169,2.169,0,0,0,.446-.267Zm14.819,19.182c1.023-1.161,1.539-2.412.789-3.873-.776-1.512-2.13-1.826-3.7-1.794-2.624.052-5.249.014-7.873.014h-1.008c.259-1.889.579-3.6.708-5.326a7.732,7.732,0,0,0-2.6-6.648,2.732,2.732,0,0,0-3.3-.459,1.1,1.1,0,0,0-.514.8,27.3,27.3,0,0,0,.224,3.01,7.584,7.584,0,0,1-.98,5.256c-1.264,2.007-2.24,4.193-3.429,6.25a26.605,26.605,0,0,1-1.825,2.357,1.948,1.948,0,0,0-.472,1c-.032,4.152-.024,8.305-.014,12.458,0,.227,2.768,2.574,4.456,2.581,4.7.022,9.4.046,14.1-.011a3.019,3.019,0,0,0,2.947-3.463c-.034-.359-.1-.715-.157-1.063,2.615-1.522,2.891-2.206,2.086-5.121C431-98.992,431.144-100.358,428.982-102.792ZM402.959-86.063Z" transform="translate(-1114.978 3512.667)" fill="#fff"/>
    <path id="Trazado_16688" data-name="Trazado 16688" d="M497.053,165.409q-12.844,12.65-25.681,25.309c-1.034,1.022-2.155,1.672-3.592,1.1-1.472-.587-1.737-1.871-1.722-3.318.036-3.575.012-7.151.012-10.874a24.186,24.186,0,0,0-9.284,1.089c-5.6,1.794-9.639,5.622-13.074,10.182-1.313,1.743-2.453,3.617-3.65,5.446a2.51,2.51,0,0,1-2.951,1.183,2.226,2.226,0,0,1-1.792-2.286c.24-10.43,1.891-20.514,7.971-29.325,5.422-7.858,12.989-12.237,22.686-13.231.03-.508.085-1.03.087-1.552.009-3.433.025-6.866,0-10.3-.011-1.42.4-2.586,1.794-3.125a2.914,2.914,0,0,1,3.33,1q12.337,12.667,24.7,25.3c.408.418.776.875,1.163,1.314Zm-29.7,10.864c0,.574,0,1.106,0,1.637,0,3.581-.041,7.162.048,10.741a2.5,2.5,0,0,0,.892,1.929,2.392,2.392,0,0,0,2.013-.648q12.35-12.009,24.609-24.113c1.248-1.228,1.251-1.752.052-2.982q-12.235-12.547-24.511-25.054a2.622,2.622,0,0,0-2.1-.823c-.512.19-.94,1.3-.957,2.021-.092,3.877-.07,7.757-.029,11.636.01.939-.252,1.331-1.242,1.364a19.868,19.868,0,0,0-3.393.429c-9.6,2-16.407,7.64-20.859,16.253-3.8,7.359-4.907,15.351-5.363,23.482-.051.9-.138,2.051,1.016,2.128.6.04,1.41-.694,1.872-1.278,2.368-2.993,4.441-6.246,7.011-9.046C451.97,177.9,459.149,175.868,467.356,176.273Z" transform="translate(-1183.108 3186.875)" fill="#fff" stroke="#fff" stroke-width="1"/>
    <path id="Trazado_16691" data-name="Trazado 16691" d="M422.226,409.937c0-7.278,4.9-12.932,11.2-13.8,4.879-.674,9.2.53,12.468,4.328,3.607,4.187,4.209,8.954,2.064,14.041a2.886,2.886,0,0,0-.152,2.07c.459,1.536.871,3.087,1.3,4.633.193.7.011.878-.706.692-1.657-.43-3.3-.909-4.972-1.281a2.558,2.558,0,0,0-1.555.15c-7.3,3.517-14.634.425-18.319-6A10.5,10.5,0,0,1,422.226,409.937ZM448.6,421.379c-.465-1.657-.874-3.181-1.323-4.692a3.132,3.132,0,0,1,.186-2.382,11.945,11.945,0,0,0,.888-7.812c-1.738-8.1-9.948-11.583-16.75-9.351A12.4,12.4,0,0,0,423.6,413.52a13.008,13.008,0,0,0,17.836,6.817,3.074,3.074,0,0,1,2.312-.231C445.31,420.553,446.886,420.934,448.6,421.379Z" transform="translate(-1196.985 2999.541)" fill="#fff" stroke="#fff" stroke-width="1"/>
    <g id="Grupo_11442" data-name="Grupo 11442" transform="translate(-188.501 -897.771)">
      <path id="Trazado_16689" data-name="Trazado 16689" d="M123.792-70.125q0-4.654,0-9.308c0-5.075,3.349-8.463,8.455-8.478q12.99-.039,25.98,0a45.937,45.937,0,0,1,6.109.174,7.737,7.737,0,0,1,6.827,7.807q.094,9.874,0,19.75a7.868,7.868,0,0,1-7.576,7.942,22.687,22.687,0,0,1-3.513.041,6.327,6.327,0,0,0-5.268,2.131c-1.136,1.163-2.215,2.381-3.336,3.559a17,17,0,0,1-1.554,1.489c-1.2.973-2.082,1.009-3.241-.027-1.1-.98-2.065-2.1-3.093-3.157-.791-.812-1.563-1.646-2.39-2.42A5.783,5.783,0,0,0,136.85-52.2a51.518,51.518,0,0,1-6.006-.093,7.809,7.809,0,0,1-7.033-7.616c-.053-3.4-.011-6.81-.011-10.215Zm23.568-6.027c-1.563-1.734-3.386-2.67-5.682-2.108-4.548,1.114-6.161,6.968-2.739,10.521a88.035,88.035,0,0,0,7.6,6.6,1.666,1.666,0,0,0,1.59.066,95.45,95.45,0,0,0,7.958-7.032,6.241,6.241,0,0,0-.525-8.86C153.142-79.141,150.131-78.865,147.36-76.152Z" transform="translate(-730.497 4290.967)" fill="#d9a100"/>
      <path id="Trazado_16692" data-name="Trazado 16692" d="M134.363,178.092c.076-.1.133-.184.2-.26a5.767,5.767,0,0,1,10,2.062,6.568,6.568,0,0,1-1.35,6.789,48.259,48.259,0,0,1-6.87,6.121q-.6.471-1.215.925a1.172,1.172,0,0,1-1.508.045,48.593,48.593,0,0,1-8.329-7.3,6.7,6.7,0,0,1,.117-8.813,5.658,5.658,0,0,1,8.29-.275C133.914,177.6,134.115,177.829,134.363,178.092Z" transform="translate(-717.972 4036.544)" fill="#fff"/>
    </g>
  </g>
</svg>
