<?xml version="1.0" encoding="UTF-8" standalone="no"?>
<svg
   id="Grupo_280"
   data-name="Grupo 280"
   width="222.367"
   height="50.538"
   viewBox="0 0 222.367 50.538"
   version="1.1"
   sodipodi:docname="logo.svg"
   inkscape:version="1.4 (e7c3feb1, 2024-10-09)"
   xmlns:inkscape="http://www.inkscape.org/namespaces/inkscape"
   xmlns:sodipodi="http://sodipodi.sourceforge.net/DTD/sodipodi-0.dtd"
   xmlns="http://www.w3.org/2000/svg"
   xmlns:svg="http://www.w3.org/2000/svg">
  <defs
     id="defs1" />
  <sodipodi:namedview
     id="namedview1"
     pagecolor="#ffffff"
     bordercolor="#000000"
     borderopacity="0.25"
     inkscape:showpageshadow="2"
     inkscape:pageopacity="0.0"
     inkscape:pagecheckerboard="0"
     inkscape:deskcolor="#d1d1d1"
     inkscape:zoom="4.748906"
     inkscape:cx="111.1835"
     inkscape:cy="25.374265"
     inkscape:window-width="1680"
     inkscape:window-height="1186"
     inkscape:window-x="2145"
     inkscape:window-y="541"
     inkscape:window-maximized="0"
     inkscape:current-layer="Grupo_280" />
  <g
     id="Grupo_18"
     data-name="Grupo 18"
     transform="translate(53.907 9.265)"
     style="fill:#000000">
    <path
       id="Trazado_20"
       data-name="Trazado 20"
       d="M437.571,175.434a5.986,5.986,0,0,1-11.972,0V155.873h-5.475v19.561a11.461,11.461,0,0,0,22.922,0V155.873h-5.475Z"
       transform="translate(-389.621 -154.804)"
       fill="#fff"
       style="fill:#000000" />
    <path
       id="Trazado_21"
       data-name="Trazado 21"
       d="M533.937,155.873H522.094v29.869h5.475v-8.011h6.368a10.93,10.93,0,1,0,0-21.859Zm0,16.447h-6.368V161.284h6.368a5.519,5.519,0,1,1,0,11.036Z"
       transform="translate(-462.789 -154.804)"
       fill="#fff"
       style="fill:#000000" />
    <path
       id="Trazado_22"
       data-name="Trazado 22"
       d="M625.837,155.873h-5.475v29.869H639.7v-5.411H625.837Z"
       transform="translate(-533.301 -154.804)"
       fill="#fff"
       style="fill:#000000" />
    <path
       id="Trazado_23"
       data-name="Trazado 23"
       d="M709.649,155.873v29.869h19.279v-5.411h-13.8v-6.818h8.311V168.1h-8.311v-6.818h13.8v-5.411H709.649Z"
       transform="translate(-597.369 -154.804)"
       fill="#fff"
       style="fill:#000000" />
    <path
       id="Trazado_24"
       data-name="Trazado 24"
       d="M815.8,155.873h-6.36l-6.027,9.763-6.027-9.763h-6.359l9.2,14.93-9.2,14.9,6.374.043,6.012-9.76,6.012,9.76,6.375-.043-9.2-14.9Z"
       transform="translate(-655.759 -154.804)"
       fill="#fff"
       style="fill:#000000" />
    <path
       id="Trazado_25"
       data-name="Trazado 25"
       d="M312.127,183.026H317.6l1.17-2.585H333.5l1.17,2.585h5.471l-14.006-30.938Zm18.921-8h-9.83l4.915-10.857Z"
       transform="translate(-312.127 -152.088)"
       fill="#fff"
       style="fill:#000000" />
  </g>
  <g
     id="Grupo_19"
     data-name="Grupo 19"
     transform="translate(216.302 10.177)">
    <path
       id="Trazado_26"
       data-name="Trazado 26"
       d="M892.234,160.525a3.026,3.026,0,0,1-5.155-2.177,2.892,2.892,0,0,1,.946-2.21,2.972,2.972,0,0,1,2.086-.823,3.041,3.041,0,0,1,2.123,5.209Zm-3.9-3.933a2.518,2.518,0,0,0,.012,3.546,2.483,2.483,0,0,0,3.534,0,2.455,2.455,0,0,0,.732-1.785,2.429,2.429,0,0,0-.728-1.757,2.46,2.46,0,0,0-3.551,0Zm.453,3.444v-3.361l.936,0q.624,0,.693.006a1.616,1.616,0,0,1,.662.173.847.847,0,0,1,.448.8.737.737,0,0,1-.237.612,1.1,1.1,0,0,1-.582.225,1.137,1.137,0,0,1,.477.194.913.913,0,0,1,.3.754v.3a.7.7,0,0,0,.007.1.486.486,0,0,0,.024.1l.031.095H890.7a2.455,2.455,0,0,1-.055-.465,1.55,1.55,0,0,0-.056-.412.408.408,0,0,0-.247-.247.983.983,0,0,0-.3-.053l-.194-.012h-.185v1.189Zm1.6-2.7a1.47,1.47,0,0,0-.51-.07h-.214v.975H890a.818.818,0,0,0,.481-.123.456.456,0,0,0,.173-.4A.385.385,0,0,0,890.387,157.336Z"
       transform="translate(-887.079 -155.316)"
       fill="#fff" />
  </g>
  <g
     id="Grupo_20"
     data-name="Grupo 20">
    <path
       id="Trazado_27"
       data-name="Trazado 27"
       d="M222.71,210.488s-2.07,3.522-8.8,10.051c-1.2,1.161-2.934,2.5-3.613,3.336l-.019.023-.01.012h0a3.56,3.56,0,0,0,1.069,5.373h0a3.531,3.531,0,0,0,1.03.364,17.482,17.482,0,0,0,2.236.331c.144.021.289.04.436.057.309.026.617.054.925.084l.1.007a4.1,4.1,0,0,1,.449.051,60.617,60.617,0,0,1,18.545,5.07l.041.017Z"
       transform="translate(-184.561 -184.728)"
       fill="#dab216" />
    <path
       id="Trazado_28"
       data-name="Trazado 28"
       d="M167.4,125.859s-9.071,12.564-22.519,17.048c-.392.16-1.944.582-1.944.582a27.992,27.992,0,0,0,8.044-6.413,6.69,6.69,0,0,0,.529-.726c.087-.133.166-.262.232-.381h0a6.622,6.622,0,0,0,.313-5.654h0l-.009-.019a6.619,6.619,0,0,0-.417-.834l-1.652-3.3h0l-2.853-5.705h0l-.582-1.165-25.269,50.538.036-.014c.68-.309,1.368-.6,2.06-.887C134.552,164.047,157.912,152.551,167.4,125.859Z"
       transform="translate(-121.271 -119.285)"
       fill="#dab216" />
  </g>
</svg>
